<?xml version="1.0" encoding="UTF-8"?>
<!DOCTYPE svg PUBLIC "-//W3C//DTD SVG 1.1//EN" "http://www.w3.org/Graphics/SVG/1.1/DTD/svg11.dtd">
<svg xmlns="http://www.w3.org/2000/svg" version="1.1" width="144px" height="165px" style="shape-rendering:geometricPrecision; text-rendering:geometricPrecision; image-rendering:optimizeQuality; fill-rule:evenodd; clip-rule:evenodd" xmlns:xlink="http://www.w3.org/1999/xlink">
<g><path style="opacity:0.298" fill="#2a2a2a" d="M 80.5,9.5 C 81.7498,9.57735 82.5831,10.244 83,11.5C 84.1827,10.269 85.3493,10.269 86.5,11.5C 85.9747,12.1924 85.3081,12.6924 84.5,13C 86.1066,14.049 86.7733,15.549 86.5,17.5C 85.1667,17.5 83.8333,17.5 82.5,17.5C 81.8333,12.1667 81.1667,12.1667 80.5,17.5C 75.6397,17.3683 70.9731,17.2016 66.5,17C 67.7253,10.1015 67.2253,9.93482 65,16.5C 63.4419,17.3452 62.4419,16.6785 62,14.5C 61.5172,15.448 61.3505,16.448 61.5,17.5C 60.0222,17.762 58.6888,17.4287 57.5,16.5C 57.9202,14.674 57.9202,12.674 57.5,10.5C 60.0792,10.0833 62.2458,10.75 64,12.5C 65.6977,11.267 67.6977,10.6004 70,10.5C 72.9069,10.4308 75.2403,11.4308 77,13.5C 77.6897,11.6498 78.8564,10.3164 80.5,9.5 Z M 72.5,11.5 C 73.782,12.7082 73.782,14.0416 72.5,15.5C 70.2064,14.3746 70.2064,13.0412 72.5,11.5 Z"/></g>
<g><path style="opacity:0.951" fill="#414141" d="M 23.5,12.5 C 33.8333,12.5 44.1667,12.5 54.5,12.5C 54.67,13.8221 54.3366,14.9887 53.5,16C 42.8333,16.3333 32.1667,16.6667 21.5,17C 18.2716,18.5629 16.1049,21.0629 15,24.5C 15.3877,40.8274 16.0543,57.1608 17,73.5C 17.5474,83.2612 18.714,92.9279 20.5,102.5C 19.7112,104.488 18.5445,104.821 17,103.5C 16.2255,99.853 15.5588,96.1864 15,92.5C 13.349,71.8437 11.849,51.177 10.5,30.5C 10.2924,21.0628 14.6258,15.0628 23.5,12.5 Z"/></g>
<g><path style="opacity:0.698" fill="#232323" d="M 103.5,21.5 C 105.435,22.1495 107.435,22.4828 109.5,22.5C 109.5,23.8333 109.5,25.1667 109.5,26.5C 107.362,26.297 105.695,25.297 104.5,23.5C 103.692,23.8076 103.025,24.3076 102.5,25C 104.818,27.5968 107.318,30.0968 110,32.5C 110.698,36.6509 108.865,38.9843 104.5,39.5C 100.738,38.7151 96.7376,38.3818 92.5,38.5C 93.9638,36.0073 93.7971,33.674 92,31.5C 90.5886,33.6504 89.7553,35.9837 89.5,38.5C 88.5,38.5 87.5,38.5 86.5,38.5C 86.0348,34.9385 84.8681,31.6051 83,28.5C 82.034,32.1177 82.534,35.451 84.5,38.5C 77.8333,39.8333 71.1667,39.8333 64.5,38.5C 65.5617,35.8971 65.7284,33.2305 65,30.5C 63.7533,33.3286 62.2533,35.9952 60.5,38.5C 58.8572,35.6919 57.3572,32.6919 56,29.5C 55.5779,31.3553 55.0779,33.1886 54.5,35C 54.9884,36.584 55.9884,37.7506 57.5,38.5C 55.5,39.8333 53.5,39.8333 51.5,38.5C 53.5995,33.4501 53.7662,28.4501 52,23.5C 50.5585,28.3088 50.0585,33.3088 50.5,38.5C 49.448,38.6495 48.448,38.4828 47.5,38C 44.6667,34.5 41.8333,31 39,27.5C 38.0211,31.4232 38.5211,35.0899 40.5,38.5C 38.5,39.8333 36.5,39.8333 34.5,38.5C 36.6946,34.0351 37.0279,29.3684 35.5,24.5C 34.6919,24.1924 34.0253,23.6924 33.5,23C 35.9018,22.1859 38.2351,22.3526 40.5,23.5C 42.4271,26.35 44.5938,29.0167 47,31.5C 47.9782,28.3307 47.4782,25.4973 45.5,23C 49.4862,22.5012 53.4862,22.3345 57.5,22.5C 58.0922,25.6907 59.2589,28.6907 61,31.5C 62.7533,28.9952 64.2533,26.3286 65.5,23.5C 67.0745,22.3691 68.7412,22.2025 70.5,23C 69.0564,24.126 68.3898,25.626 68.5,27.5C 69,30.5 69.5,33.5 70,36.5C 70.414,36.9574 70.914,37.2907 71.5,37.5C 72.8023,32.615 72.8023,27.7817 71.5,23C 73.8333,22.3333 76.1667,22.3333 78.5,23C 78,23.5 77.5,24 77,24.5C 76.501,28.8206 76.3343,33.1539 76.5,37.5C 78.1238,37.6399 79.2904,36.9733 80,35.5C 80.2963,32.2942 80.7963,29.1275 81.5,26C 80.9777,25.0497 80.311,24.2164 79.5,23.5C 81.3529,22.2404 83.1862,22.2404 85,23.5C 86.0758,26.6484 87.4091,29.6484 89,32.5C 90.0587,29.3821 91.3921,26.3821 93,23.5C 94.7261,22.4238 96.5594,22.2571 98.5,23C 96.9409,24.9958 96.2742,27.3291 96.5,30C 96.5649,32.2254 96.8982,34.3921 97.5,36.5C 97.8333,36.8333 98.1667,37.1667 98.5,37.5C 99.4732,33.011 100.807,32.6777 102.5,36.5C 103.689,37.4287 105.022,37.762 106.5,37.5C 105.756,34.0632 103.756,31.3965 100.5,29.5C 98.7632,25.7696 99.7632,23.1029 103.5,21.5 Z"/></g>
<g><path style="opacity:0.88" fill="#424242" d="M 90.5,12.5 C 101.888,12.1167 113.221,12.6167 124.5,14C 131.474,17.9484 134.474,23.9484 133.5,32C 132.433,56.2611 130.433,80.4278 127.5,104.5C 126.5,104.5 125.5,104.5 124.5,104.5C 126.424,79.3308 128.424,54.1641 130.5,29C 130.074,23.4739 127.407,19.4739 122.5,17C 111.833,16.6667 101.167,16.3333 90.5,16C 89.3157,14.8545 89.3157,13.6879 90.5,12.5 Z"/></g>
<g><path style="opacity:0.999" fill="#343434" d="M 44.5,44.5 C 53.1667,44.5 61.8333,44.5 70.5,44.5C 70.5,60.5 70.5,76.5 70.5,92.5C 60.6522,92.1729 50.9856,92.5062 41.5,93.5C 39.8481,80.85 38.5147,68.0167 37.5,55C 36.7654,49.2711 39.0987,45.7711 44.5,44.5 Z"/></g>
<g><path style="opacity:0.993" fill="#363636" d="M 72.5,43.5 C 81.5062,43.3336 90.5062,43.5002 99.5,44C 102.196,44.6898 104.363,46.1898 106,48.5C 105.922,63.53 105.089,78.53 103.5,93.5C 102.167,93.5 100.833,93.5 99.5,93.5C 102.087,82.9668 98.4207,75.8001 88.5,72C 84.3672,68.8689 80.5338,65.3689 77,61.5C 74.2932,55.7984 72.7932,49.7984 72.5,43.5 Z"/></g>
<g><path style="opacity:0.149" fill="#535353" d="M 44.5,44.5 C 53.3178,43.5067 62.3178,43.1734 71.5,43.5C 71.5,60.1667 71.5,76.8333 71.5,93.5C 61.5,93.5 51.5,93.5 41.5,93.5C 50.9856,92.5062 60.6522,92.1729 70.5,92.5C 70.5,76.5 70.5,60.5 70.5,44.5C 61.8333,44.5 53.1667,44.5 44.5,44.5 Z"/></g>
<g><path style="opacity:0.782" fill="#454444" d="M 42.5,99.5 C 42.1566,102.856 43.1566,104.856 45.5,105.5C 45.2907,106.086 44.9574,106.586 44.5,107C 48.4131,112.25 52.5797,116.416 57,119.5C 57.6708,118.748 58.5041,118.414 59.5,118.5C 59.3893,119.117 59.056,119.617 58.5,120C 60.0905,121.046 61.5905,122.213 63,123.5C 63.2784,122.584 63.7784,121.918 64.5,121.5C 64.4326,124.766 66.0992,126.266 69.5,126C 70.717,127.648 71.5503,129.481 72,131.5C 73.0264,127.807 75.3598,125.474 79,124.5C 79.4828,123.552 79.6495,122.552 79.5,121.5C 79.5,120.833 79.8333,120.5 80.5,120.5C 80.3505,121.552 80.5172,122.552 81,123.5C 83.6339,120.626 86.4672,118.793 89.5,118C 90.3366,116.989 90.67,115.822 90.5,114.5C 91.552,114.649 92.552,114.483 93.5,114C 96.8847,110.283 99.8847,106.283 102.5,102C 101.748,101.329 101.414,100.496 101.5,99.5C 102.117,99.6107 102.617,99.944 103,100.5C 105.044,91.3561 106.211,91.3561 106.5,100.5C 107.675,100.281 108.675,100.614 109.5,101.5C 107.976,103.858 105.976,105.691 103.5,107C 105.044,107.29 106.377,107.956 107.5,109C 105.307,110.064 103.307,111.398 101.5,113C 102.308,113.308 102.975,113.808 103.5,114.5C 101.833,115.833 100.167,117.167 98.5,118.5C 98.8333,119.167 99.1667,119.833 99.5,120.5C 97.2418,121.799 94.9084,122.799 92.5,123.5C 92.5,124.5 92.5,125.5 92.5,126.5C 89.9897,126.991 87.6564,127.991 85.5,129.5C 86.3256,130.451 86.4922,131.451 86,132.5C 76.788,133.59 67.6213,133.59 58.5,132.5C 57.4104,131.609 57.4104,130.609 58.5,129.5C 56.1667,128.167 53.8333,126.833 51.5,125.5C 51.7093,124.914 52.0426,124.414 52.5,124C 50.028,122.54 47.3613,121.54 44.5,121C 45.1667,120.333 45.8333,119.667 46.5,119C 44.6507,117.32 42.6507,115.82 40.5,114.5C 41.376,113.749 42.376,113.249 43.5,113C 41.202,111.914 39.202,110.414 37.5,108.5C 38.7287,107.719 40.062,107.219 41.5,107C 38.4476,106.118 36.1142,104.284 34.5,101.5C 35.325,100.614 36.325,100.281 37.5,100.5C 37.8286,91.3691 38.9952,91.3691 41,100.5C 41.3826,99.944 41.8826,99.6107 42.5,99.5 Z M 101.5,99.5 C 101.414,100.496 101.748,101.329 102.5,102C 99.8847,106.283 96.8847,110.283 93.5,114C 92.552,114.483 91.552,114.649 90.5,114.5C 94.9226,109.96 98.5892,104.96 101.5,99.5 Z M 90.5,114.5 C 90.67,115.822 90.3366,116.989 89.5,118C 86.4672,118.793 83.6339,120.626 81,123.5C 80.5172,122.552 80.3505,121.552 80.5,120.5C 81.1667,120.5 81.5,120.167 81.5,119.5C 84.6612,118.087 87.6612,116.42 90.5,114.5 Z M 59.5,118.5 C 61.4341,119.11 63.1007,120.11 64.5,121.5C 63.7784,121.918 63.2784,122.584 63,123.5C 61.5905,122.213 60.0905,121.046 58.5,120C 59.056,119.617 59.3893,119.117 59.5,118.5 Z"/></g>
<g><path style="opacity:1" fill="#99251d" d="M 101.5,97.5 C 101.5,98.1667 101.5,98.8333 101.5,99.5C 98.5892,104.96 94.9226,109.96 90.5,114.5C 87.6612,116.42 84.6612,118.087 81.5,119.5C 79.4086,119.318 77.4086,119.652 75.5,120.5C 74.5023,112.528 74.169,104.528 74.5,96.5C 83.6822,96.1734 92.6822,96.5067 101.5,97.5 Z"/></g>
<g><path style="opacity:0.978" fill="#080707" d="M 42.5,99.5 C 42.4606,98.4168 42.1272,97.4168 41.5,96.5C 51.4778,95.5015 61.4778,95.1681 71.5,95.5C 71.5,97.5 71.5,99.5 71.5,101.5C 61.572,102.1 51.9053,101.433 42.5,99.5 Z"/></g>
<g><path style="opacity:0.975" fill="#252424" d="M 47.5,105.5 C 55.1739,105.334 62.8406,105.5 70.5,106C 71.4231,108.041 71.7564,110.208 71.5,112.5C 64.825,112.666 58.1583,112.5 51.5,112C 49.0771,110.429 47.7438,108.263 47.5,105.5 Z"/></g>
<g><path style="opacity:0.341" fill="#202020" d="M 117.5,125.5 C 116.292,122.956 114.292,121.622 111.5,121.5C 114.761,115.978 117.761,110.311 120.5,104.5C 121.648,106.149 122.981,107.649 124.5,109C 128.153,108.799 128.486,110.299 125.5,113.5C 124.751,111.988 123.584,110.988 122,110.5C 120.404,111.497 118.904,112.663 117.5,114C 119.807,116.108 122.14,117.441 124.5,118C 123.013,121.124 121.347,121.124 119.5,118C 114.731,118.798 114.564,120.298 119,122.5C 119.889,121.112 120.389,121.278 120.5,123C 120.252,124.749 119.252,125.582 117.5,125.5 Z"/></g>
<g><path style="opacity:0.974" fill="#161414" d="M 64.5,121.5 C 63.1007,120.11 61.4341,119.11 59.5,118.5C 59.3893,117.883 59.056,117.383 58.5,117C 62.8206,116.501 67.1539,116.334 71.5,116.5C 71.8076,118.924 71.4742,121.257 70.5,123.5C 68.677,122.253 66.677,121.586 64.5,121.5 Z"/></g>
<g><path style="opacity:1" fill="#a13c39" d="M 101.5,97.5 C 92.6822,96.5067 83.6822,96.1734 74.5,96.5C 74.169,104.528 74.5023,112.528 75.5,120.5C 77.4086,119.652 79.4086,119.318 81.5,119.5C 81.5,120.167 81.1667,120.5 80.5,120.5C 79.8333,120.5 79.5,120.833 79.5,121.5C 77.323,121.586 75.323,122.253 73.5,123.5C 72.5017,114.19 72.1684,104.857 72.5,95.5C 82.5222,95.1681 92.5222,95.5015 102.5,96.5C 102.376,97.1067 102.043,97.44 101.5,97.5 Z"/></g>
<g><path style="opacity:0.008" fill="#e4e6e2" d="M 92.5,126.5 C 93.8333,127.167 93.8333,127.167 92.5,126.5 Z"/></g>
<g><path style="opacity:0.812" fill="#242423" d="M 111.5,121.5 C 112.95,123.61 114.95,124.943 117.5,125.5C 117.477,127.927 116.977,130.26 116,132.5C 113.526,133.465 111.026,133.632 108.5,133C 110.007,133.837 110.507,135.004 110,136.5C 107.667,138.5 105.333,140.5 103,142.5C 102.482,139.977 101.148,137.977 99,136.5C 99.3201,139.46 99.3201,142.46 99,145.5C 91.3967,139.534 90.2301,140.201 95.5,147.5C 94.6721,148.415 93.6721,149.081 92.5,149.5C 91.8944,146.66 90.5611,144.327 88.5,142.5C 90.1475,140.674 92.1475,139.34 94.5,138.5C 97.8909,135.615 101.224,132.448 104.5,129C 106.087,128.138 107.754,127.471 109.5,127C 108.554,124.702 109.221,122.868 111.5,121.5 Z M 110.5,128.5 C 115.871,131.447 115.538,131.947 109.5,130C 110.056,129.617 110.389,129.117 110.5,128.5 Z M 105.5,134.5 C 104.833,134.5 104.167,134.5 103.5,134.5C 103.786,132.067 104.452,132.067 105.5,134.5 Z M 103.5,134.5 C 103.217,135.289 102.717,135.956 102,136.5C 101.472,135.184 101.972,134.517 103.5,134.5 Z M 104.5,136.5 C 105.773,137.077 105.773,137.743 104.5,138.5C 103.537,138.03 103.537,137.363 104.5,136.5 Z M 94.5,138.5 C 96.0281,138.517 96.5281,139.184 96,140.5C 95.2828,139.956 94.7828,139.289 94.5,138.5 Z"/></g>
<g><path style="opacity:0.4" fill="#3c3d3b" d="M 22.5,104.5 C 24.6491,105.59 25.9825,107.424 26.5,110C 26.2231,111.892 25.2231,113.225 23.5,114C 27.7546,119.298 31.9213,124.798 36,130.5C 38.1667,132.167 40.3333,133.833 42.5,135.5C 43.1144,131.93 44.4477,131.597 46.5,134.5C 44.4197,136.993 42.5864,139.659 41,142.5C 39.0781,139.952 36.7447,137.952 34,136.5C 33.6667,135.167 33.3333,133.833 33,132.5C 32.586,132.957 32.086,133.291 31.5,133.5C 27.2458,129.291 23.7458,124.624 21,119.5C 20.2797,117.888 20.4464,116.388 21.5,115C 18.0383,113.704 16.3717,111.204 16.5,107.5C 19.089,107.539 21.089,106.539 22.5,104.5 Z M 22.5,107.5 C 23.4345,108.568 23.7678,109.901 23.5,111.5C 21.5714,111.769 19.9047,111.269 18.5,110C 20.0664,109.392 21.3998,108.558 22.5,107.5 Z M 39.5,136.5 C 41.6456,136.696 41.8122,137.696 40,139.5C 39.5172,138.552 39.3505,137.552 39.5,136.5 Z"/></g>
<g><path style="opacity:0.661" fill="#3b3b3a" d="M 47.5,139.5 C 49.8348,140.413 52.0015,141.747 54,143.5C 56.2278,147.548 55.0612,149.382 50.5,149C 49.2713,147.471 47.7713,146.304 46,145.5C 46.5948,143.65 47.0948,141.65 47.5,139.5 Z M 51.5,145.5 C 54.0009,145.511 54.1676,146.178 52,147.5C 51.5357,146.906 51.369,146.239 51.5,145.5 Z"/></g>
<g><path style="opacity:0.684" fill="#202020" d="M 88.5,142.5 C 88.7563,144.937 89.4229,147.271 90.5,149.5C 90.1667,149.833 89.8333,150.167 89.5,150.5C 88.2322,149.572 86.8989,149.405 85.5,150C 86.6745,152.829 85.6745,153.829 82.5,153C 82.8333,152.667 83.1667,152.333 83.5,152C 82.8095,150.933 82.3095,149.766 82,148.5C 81.2825,147.549 80.4491,147.383 79.5,148C 82.5566,151.589 82.0566,154.422 78,156.5C 75.2308,154.991 73.3975,152.657 72.5,149.5C 73.2421,148.713 74.0754,148.047 75,147.5C 75.813,149.436 76.313,151.436 76.5,153.5C 77.5,153.5 78.5,153.5 79.5,153.5C 79.5713,150.976 78.5713,148.976 76.5,147.5C 79.6274,144.617 82.7941,144.283 86,146.5C 86.4922,145.451 86.3256,144.451 85.5,143.5C 86.325,142.614 87.325,142.281 88.5,142.5 Z"/></g>
<g><path style="opacity:0.49" fill="#3f3f3e" d="M 60.5,143.5 C 63.2144,143.687 63.881,144.854 62.5,147C 63.3396,148.171 64.1729,149.338 65,150.5C 67.215,149.18 68.715,149.847 69.5,152.5C 68.624,153.251 67.624,153.751 66.5,154C 69.0278,154.998 69.0278,155.831 66.5,156.5C 63.8694,154.332 60.8694,152.832 57.5,152C 58.9292,149.31 59.9292,146.477 60.5,143.5 Z"/></g>
</svg>
