<?xml version="1.0" encoding="UTF-8"?>
<svg version="1.1" xmlns="http://www.w3.org/2000/svg" width="200" height="200">
<path d="M0 0 C66 0 132 0 200 0 C200 66 200 132 200 200 C134 200 68 200 0 200 C0 134 0 68 0 0 Z " fill="#FEFEFE" transform="translate(0,0)"/>
<path d="M0 0 C0.81146484 0.00966797 1.62292969 0.01933594 2.45898438 0.02929688 C8.41090145 0.1415972 8.41090145 0.1415972 11.26391602 0.88989258 C11.85744873 1.02935303 12.45098145 1.16881348 13.0625 1.3125 C13.3925 0.9825 13.7225 0.6525 14.0625 0.3125 C16.59299402 0.23936433 19.09554837 0.22002473 21.625 0.25 C22.69137695 0.25676758 22.69137695 0.25676758 23.77929688 0.26367188 C25.54040013 0.27549136 27.30146036 0.29342737 29.0625 0.3125 C29.0625 1.6325 29.0625 2.9525 29.0625 4.3125 C24.7725 4.3125 20.4825 4.3125 16.0625 4.3125 C16.0625 4.9725 16.0625 5.6325 16.0625 6.3125 C16.89394531 6.26609375 17.72539062 6.2196875 18.58203125 6.171875 C19.66871094 6.13578125 20.75539062 6.0996875 21.875 6.0625 C23.49341797 5.99289063 23.49341797 5.99289063 25.14453125 5.921875 C28.0625 6.3125 28.0625 6.3125 29.91796875 8.14453125 C31.50944866 11.15910923 31.61191234 12.94734942 31.0625 16.3125 C29.40705292 19.17769686 28.93619979 19.93378854 26.0625 21.3125 C20.96663072 22.18487432 15.19838792 23.14240165 10.12890625 21.80078125 C6.20885251 20.87449256 1.91457763 21.48240344 -2.09375 21.79101562 C-4.1875 21.86328125 -4.1875 21.86328125 -7.9375 21.3125 C-11.35305687 17.62715191 -12.48025309 14.66947953 -12.375 9.6875 C-12.37371094 8.76710938 -12.37242187 7.84671875 -12.37109375 6.8984375 C-11.09933383 -0.68629285 -6.574593 -0.2338788 0 0 Z " fill="#E0F8FD" transform="translate(157.9375,113.6875)"/>
<path d="M0 0 C1.98 0 3.96 0 6 0 C6 9.24 6 18.48 6 28 C1.9575 28.0825 -2.085 28.165 -6.25 28.25 C-7.51875977 28.28641602 -8.78751953 28.32283203 -10.09472656 28.36035156 C-11.09987305 28.3703418 -12.10501953 28.38033203 -13.140625 28.390625 C-14.16704102 28.41157227 -15.19345703 28.43251953 -16.25097656 28.45410156 C-19.72950201 27.87949612 -20.87919492 26.76584831 -23 24 C-23.49609375 20.87109375 -23.49609375 20.87109375 -23.4375 17.4375 C-23.43556641 15.73400391 -23.43556641 15.73400391 -23.43359375 13.99609375 C-22.95211599 10.66912583 -22.60301004 9.9787522 -20 8 C-17.9152832 7.65942383 -17.9152832 7.65942383 -15.55078125 7.70703125 C-14.70322266 7.71669922 -13.85566406 7.72636719 -12.98242188 7.73632812 C-11.66081055 7.7740332 -11.66081055 7.7740332 -10.3125 7.8125 C-9.41982422 7.82603516 -8.52714844 7.83957031 -7.60742188 7.85351562 C-5.40433834 7.88885921 -3.20247418 7.93819507 -1 8 C-0.67 5.36 -0.34 2.72 0 0 Z " fill="#F0FDFD" transform="translate(71,64)"/>
<path d="M0 0 C0 1.65 0 3.3 0 5 C-1.65 5 -3.3 5 -5 5 C-6.18573083 10.92865415 -5.98868172 16.61771135 -5.83984375 22.63671875 C-6 26 -6 26 -8 29 C-11.1875 29.6875 -11.1875 29.6875 -15 29 C-16.99502214 27.13452475 -18.60710295 25.13048491 -20.2890625 22.98046875 C-22.49881622 20.42260314 -24.87704166 19.21871545 -28 18 C-28 16.35 -28 14.7 -28 13 C-27.154375 12.649375 -26.30875 12.29875 -25.4375 11.9375 C-20.87133035 9.36384074 -16.38967765 5.7793553 -14 1 C-9.28474515 0.20080426 -4.78845757 -0.11971144 0 0 Z " fill="#EDFAFB" transform="translate(44,63)"/>
<path d="M0 0 C1.06734375 -0.02900391 2.1346875 -0.05800781 3.234375 -0.08789062 C4.25789063 -0.09626953 5.28140625 -0.10464844 6.3359375 -0.11328125 C7.27743652 -0.12786377 8.21893555 -0.14244629 9.18896484 -0.1574707 C11.625 0.3125 11.625 0.3125 13.43212891 2.12426758 C15.18316891 5.33641895 15.0040943 7.71110414 14.625 11.3125 C12.91661909 15.15635704 11.43330296 16.66223539 7.625 18.3125 C7.295 18.9725 6.965 19.6325 6.625 20.3125 C7.2025 20.56 7.78 20.8075 8.375 21.0625 C10.9252997 22.47933317 12.64285701 24.18877537 14.625 26.3125 C9.2830408 27.12540684 6.80046433 26.07166316 2.375 22.9375 C0.78517282 21.73772359 -0.79896886 20.53034224 -2.375 19.3125 C-3.365 18.6525 -4.355 17.9925 -5.375 17.3125 C-5.375 15.9925 -5.375 14.6725 -5.375 13.3125 C1.06 12.8175 1.06 12.8175 7.625 12.3125 C8.285 10.0025 8.945 7.6925 9.625 5.3125 C4.015 5.3125 -1.595 5.3125 -7.375 5.3125 C-7.375 12.2425 -7.375 19.1725 -7.375 26.3125 C-9.025 26.3125 -10.675 26.3125 -12.375 26.3125 C-12.40386751 22.16668113 -12.42175327 18.02088784 -12.4375 13.875 C-12.44587891 12.69099609 -12.45425781 11.50699219 -12.46289062 10.28710938 C-12.46611328 9.16240234 -12.46933594 8.03769531 -12.47265625 6.87890625 C-12.47789307 5.83677979 -12.48312988 4.79465332 -12.48852539 3.72094727 C-12.21677427 -2.04426736 -4.43923176 0.03992115 0 0 Z " fill="#2386C0" transform="translate(20.375,106.6875)"/>
<path d="M0 0 C1.00836914 -0.01740234 1.00836914 -0.01740234 2.03710938 -0.03515625 C4.80733665 -0.01865043 6.95133053 0.09523246 9.37890625 1.4921875 C10.96024108 4.30474614 10.83413642 6.67280996 10.8125 9.875 C10.82023437 11.0196875 10.82796875 12.164375 10.8359375 13.34375 C10.4375 16.375 10.4375 16.375 9.4140625 18.25390625 C6.24660343 20.050469 2.97901878 19.84715899 -0.5625 19.8125 C-1.64917969 19.8424707 -1.64917969 19.8424707 -2.7578125 19.87304688 C-5.9706536 19.870083 -8.02181029 19.82682388 -10.53515625 17.7265625 C-11.81842359 14.7891977 -11.99603077 12.51567075 -12 9.3125 C-12.01933594 8.26964844 -12.03867187 7.22679688 -12.05859375 6.15234375 C-11.5625 3.375 -11.5625 3.375 -10.0078125 1.52734375 C-6.59252574 -0.0820965 -3.76117814 -0.0220597 0 0 Z " fill="#197BBD" transform="translate(49.5625,113.625)"/>
<path d="M0 0 C1.08667969 -0.01740234 1.08667969 -0.01740234 2.1953125 -0.03515625 C5.11271963 -0.01900824 7.42188374 0.03795594 9.9765625 1.52734375 C11.4452432 4.17881692 11.39736571 6.2968564 11.375 9.3125 C11.38273437 10.35277344 11.39046875 11.39304687 11.3984375 12.46484375 C10.93674757 15.83699082 10.62257982 17.1826062 8 19.375 C5.17227379 19.78238428 2.81751394 19.93516044 0 19.875 C-0.72445312 19.89046875 -1.44890625 19.9059375 -2.1953125 19.921875 C-5.40648922 19.89817628 -7.46742275 19.82021774 -9.9765625 17.72265625 C-11.25941995 14.77991836 -11.39884262 12.51933212 -11.375 9.3125 C-11.38273437 8.26964844 -11.39046875 7.22679688 -11.3984375 6.15234375 C-11 3.375 -11 3.375 -9.9765625 1.52734375 C-6.81941681 -0.31328467 -3.54828262 -0.05682303 0 0 Z " fill="#1186C7" transform="translate(101,113.625)"/>
<path d="M0 0 C1.65 0 3.3 0 5 0 C5 7.92 5 15.84 5 24 C8.96 23.67 12.92 23.34 17 23 C17.33 20.03 17.66 17.06 18 14 C14.7 14 11.4 14 8 14 C7.67 12.35 7.34 10.7 7 9 C8.93681161 8.91892417 10.8745934 8.86077525 12.8125 8.8125 C13.89144531 8.77769531 14.97039062 8.74289063 16.08203125 8.70703125 C19 9 19 9 20.86328125 10.10546875 C22.54942995 12.91571658 22.39695741 15.25030399 22.375 18.5 C22.38273437 19.6446875 22.39046875 20.789375 22.3984375 21.96875 C22 25 22 25 20.94140625 26.87890625 C17.93953584 28.61238071 14.93151273 28.47303129 11.5625 28.4375 C9.58443359 28.46650391 9.58443359 28.46650391 7.56640625 28.49609375 C3.41542941 27.91868514 2.5195963 27.24689541 0 24 C-0.45410156 21.34277344 -0.45410156 21.34277344 -0.390625 18.359375 C-0.37773438 17.28945312 -0.36484375 16.21953125 -0.3515625 15.1171875 C-0.31804688 14.00601563 -0.28453125 12.89484375 -0.25 11.75 C-0.23195312 10.62335938 -0.21390625 9.49671875 -0.1953125 8.3359375 C-0.14820222 5.55643104 -0.08243361 2.7786466 0 0 Z " fill="#258BCB" transform="translate(64,105)"/>
<path d="M0 0 C0.70189453 0.01353516 1.40378906 0.02707031 2.12695312 0.04101562 C3.85579829 0.07629818 5.58424765 0.13010417 7.3125 0.1875 C7.3125 1.5075 7.3125 2.8275 7.3125 4.1875 C3.0225 4.1875 -1.2675 4.1875 -5.6875 4.1875 C-5.6875 4.8475 -5.6875 5.5075 -5.6875 6.1875 C-4.85605469 6.14109375 -4.02460938 6.0946875 -3.16796875 6.046875 C-2.08128906 6.01078125 -0.99460938 5.9746875 0.125 5.9375 C1.74341797 5.86789063 1.74341797 5.86789063 3.39453125 5.796875 C6.3125 6.1875 6.3125 6.1875 8.171875 8.01171875 C9.72161696 10.96790461 9.80221249 12.8994304 9.3125 16.1875 C6.76007165 19.01034065 5.26868153 19.19079958 1.421875 19.48046875 C-0.03154009 19.46064945 -1.48481167 19.42504845 -2.9375 19.375 C-3.68257812 19.36146484 -4.42765625 19.34792969 -5.1953125 19.33398438 C-7.02635416 19.29877204 -8.85702169 19.24496851 -10.6875 19.1875 C-10.6875 17.8675 -10.6875 16.5475 -10.6875 15.1875 C-5.7375 15.1875 -0.7875 15.1875 4.3125 15.1875 C4.3125 13.8675 4.3125 12.5475 4.3125 11.1875 C3.48105469 11.22230469 2.64960938 11.25710937 1.79296875 11.29296875 C0.16294922 11.33357422 0.16294922 11.33357422 -1.5 11.375 C-2.57894531 11.40980469 -3.65789062 11.44460937 -4.76953125 11.48046875 C-7.6875 11.1875 -7.6875 11.1875 -9.55078125 9.83203125 C-11.17547756 7.48152559 -11.1064057 5.98020468 -10.6875 3.1875 C-8.13165108 -0.84250897 -4.27756575 -0.1557657 0 0 Z " fill="#2B91C8" transform="translate(179.6875,113.8125)"/>
<path d="M0 0 C0.75732422 0.00966797 1.51464844 0.01933594 2.29492188 0.02929688 C3.08060547 0.05443359 3.86628906 0.07957031 4.67578125 0.10546875 C5.87170898 0.12577148 5.87170898 0.12577148 7.09179688 0.14648438 C9.05758092 0.18179786 11.02301707 0.23560428 12.98828125 0.29296875 C12.98828125 1.94296875 12.98828125 3.59296875 12.98828125 5.29296875 C8.03828125 5.29296875 3.08828125 5.29296875 -2.01171875 5.29296875 C-2.01171875 8.59296875 -2.01171875 11.89296875 -2.01171875 15.29296875 C2.93828125 15.29296875 7.88828125 15.29296875 12.98828125 15.29296875 C12.98828125 16.94296875 12.98828125 18.59296875 12.98828125 20.29296875 C10.40382352 20.40115535 7.82390773 20.48034112 5.23828125 20.54296875 C4.50867187 20.57648438 3.7790625 20.61 3.02734375 20.64453125 C-0.39551785 20.7067651 -2.59331689 20.56292662 -5.5 18.6875 C-7.48357193 15.54556306 -7.51229808 13.42691776 -7.44921875 9.73046875 C-7.44728516 8.02697266 -7.44728516 8.02697266 -7.4453125 6.2890625 C-6.76075434 1.55882731 -4.72636969 -0.10660984 0 0 Z " fill="#2287C6" transform="translate(55.01171875,71.70703125)"/>
<path d="M0 0 C0.79728516 0.01804687 1.59457031 0.03609375 2.41601562 0.0546875 C4.38202449 0.10177753 6.34741494 0.17352101 8.3125 0.25 C8.3125 1.9 8.3125 3.55 8.3125 5.25 C3.3625 5.25 -1.5875 5.25 -6.6875 5.25 C-6.6875 8.55 -6.6875 11.85 -6.6875 15.25 C-1.7375 15.25 3.2125 15.25 8.3125 15.25 C8.3125 16.57 8.3125 17.89 8.3125 19.25 C5.54063012 19.35787818 2.77294463 19.43723327 0 19.5 C-0.78568359 19.53351563 -1.57136719 19.56703125 -2.38085938 19.6015625 C-8.14433093 19.69966414 -8.14433093 19.69966414 -10.70703125 17.578125 C-11.87241665 14.81091505 -12.08723304 12.750942 -12.0625 9.75 C-12.07023438 8.8115625 -12.07796875 7.873125 -12.0859375 6.90625 C-10.95076673 -0.66155514 -6.51554967 -0.27793977 0 0 Z " fill="#1B7FBE" transform="translate(157.6875,113.75)"/>
<path d="M0 0 C2.64 0 5.28 0 8 0 C7.5020163 3.73487777 7.12508244 5.81237635 5 9 C5.66 9 6.32 9 7 9 C7.02888146 12.31248187 7.04675799 15.62493167 7.0625 18.9375 C7.07087891 19.88302734 7.07925781 20.82855469 7.08789062 21.80273438 C7.09111328 22.70185547 7.09433594 23.60097656 7.09765625 24.52734375 C7.10289307 25.35999756 7.10812988 26.19265137 7.11352539 27.05053711 C7 29 7 29 6 30 C3.5 30.125 3.5 30.125 1 30 C0 29 0 29 -0.11352539 26.22436523 C-0.10828857 25.01466064 -0.10305176 23.80495605 -0.09765625 22.55859375 C-0.09443359 21.25341797 -0.09121094 19.94824219 -0.08789062 18.60351562 C-0.07953401 17.2148431 -0.07106905 15.82617123 -0.0625 14.4375 C-0.05748666 13.04492344 -0.05292347 11.65234519 -0.04882812 10.25976562 C-0.03699434 6.8398013 -0.0205088 3.41992156 0 0 Z " fill="#DBF5FC" transform="translate(136,104)"/>
<path d="M0 0 C1.65 0 3.3 0 5 0 C5 2.31 5 4.62 5 7 C7.64 7 10.28 7 13 7 C13 8.65 13 10.3 13 12 C10.36 12 7.72 12 5 12 C5 16.62 5 21.24 5 26 C3.35 26 1.7 26 0 26 C0 21.38 0 16.76 0 12 C-1.98 12 -3.96 12 -6 12 C-6 10.35 -6 8.7 -6 7 C-4.02 7 -2.04 7 0 7 C0 4.69 0 2.38 0 0 Z " fill="#0E8BD0" transform="translate(121,107)"/>
<path d="M0 0 C5.61 0 11.22 0 17 0 C16 7 16 7 15 8 C12.81360547 8.07258946 10.62499611 8.08373783 8.4375 8.0625 C6.64119141 8.04896484 6.64119141 8.04896484 4.80859375 8.03515625 C3.88175781 8.02355469 2.95492188 8.01195313 2 8 C2.36405249 10.70438996 2.68142682 11.74406383 4.84765625 13.484375 C5.57855469 13.90203125 6.30945313 14.3196875 7.0625 14.75 C7.79597656 15.17796875 8.52945312 15.6059375 9.28515625 16.046875 C9.85105469 16.36140625 10.41695312 16.6759375 11 17 C8.04335481 18.4783226 5.25770263 18.06032783 2 18 C1.67 18.99 1.34 19.98 1 21 C0.67 21 0.34 21 0 21 C0 14.07 0 7.14 0 0 Z " fill="#CBF6FD" transform="translate(13,112)"/>
<path d="M0 0 C0.825 0.165 1.65 0.33 2.5 0.5 C2.5 1.16 2.5 1.82 2.5 2.5 C0.890625 4.05078125 0.890625 4.05078125 -1.25 5.8125 C-4.44777097 8.44770015 -6.98210617 11.20518848 -9.5 14.5 C-7.87807179 16.14886059 -6.25236228 17.7940024 -4.625 19.4375 C-3.72007813 20.35402344 -2.81515625 21.27054688 -1.8828125 22.21484375 C0.27682255 24.51187627 0.27682255 24.51187627 2.5 25.5 C2.5 26.16 2.5 26.82 2.5 27.5 C-0.5625 28 -0.5625 28 -4.5 27.5 C-6.50892192 25.64261314 -8.1044496 23.63387664 -9.7890625 21.48046875 C-11.99881622 18.92260314 -14.37704166 17.71871545 -17.5 16.5 C-17.5 14.85 -17.5 13.2 -17.5 11.5 C-16.675 11.17 -15.85 10.84 -15 10.5 C-11.84066689 8.97249224 -9.86480314 6.88194956 -7.5 4.3125 C-3.93472348 0.56210335 -3.93472348 0.56210335 0 0 Z " fill="#2183BD" transform="translate(33.5,64.5)"/>
<path d="M0 0 C0.99 0.495 0.99 0.495 2 1 C2 2.98 2 4.96 2 7 C5.3 7.33 8.6 7.66 12 8 C12 8.33 12 8.66 12 9 C8.7 9 5.4 9 2 9 C2.33 10.32 2.66 11.64 3 13 C6.3 13.33 9.6 13.66 13 14 C13.09765625 20.93359375 13.09765625 20.93359375 13 23 C12.67 23.33 12.34 23.66 12 24 C8.04 24 4.08 24 0 24 C0 16.08 0 8.16 0 0 Z " fill="#F5FEFD" transform="translate(69,105)"/>
<path d="M0 0 C0.66 0.33 1.32 0.66 2 1 C1.979375 1.969375 1.95875 2.93875 1.9375 3.9375 C1.64381501 6.87465895 1.64381501 6.87465895 3 8 C3.28393978 10.51489516 3.4481124 13.02989582 3.62109375 15.5546875 C3.8632494 18.25068778 3.8632494 18.25068778 6 21 C8.75541841 21.27613568 11.25091102 21.37257625 14 21.3125 C15.10601562 21.31733398 15.10601562 21.31733398 16.234375 21.32226562 C20.58476289 21.41918962 20.58476289 21.41918962 24 19 C24.46290221 16.33757179 24.46290221 16.33757179 24.625 13.375 C24.69976562 12.37210938 24.77453125 11.36921875 24.8515625 10.3359375 C24.90054688 9.56507812 24.94953125 8.79421875 25 8 C25.33 8 25.66 8 26 8 C26.10841951 9.91541138 26.18578079 11.83259773 26.25 13.75 C26.29640625 14.81734375 26.3428125 15.8846875 26.390625 16.984375 C26 20 26 20 24.41796875 22.37109375 C21.1550039 24.56924616 18.9663035 24.43332209 15.0625 24.3125 C13.25458984 24.27576172 13.25458984 24.27576172 11.41015625 24.23828125 C8.50632672 24.03537907 5.82903757 23.66028771 3 23 C2.67 20.69 2.34 18.38 2 16 C1.01 16 0.02 16 -1 16 C-0.67 16.99 -0.34 17.98 0 19 C0.66 19.33 1.32 19.66 2 20 C2 20.99 2 21.98 2 23 C-1.3 23 -4.6 23 -8 23 C-7.67 22.34 -7.34 21.68 -7 21 C-5.02 21 -3.04 21 -1 21 C-3.31 19.35 -5.62 17.7 -8 16 C-7.67 15.01 -7.34 14.02 -7 13 C-6.195625 12.649375 -5.39125 12.29875 -4.5625 11.9375 C-0.9386135 9.19748826 -0.93944685 6.42819584 -0.26171875 2.08203125 C-0.17535156 1.39496094 -0.08898438 0.70789063 0 0 Z " fill="#D3F2FA" transform="translate(35,111)"/>
<path d="M0 0 C1.93681161 -0.08107583 3.8745934 -0.13922475 5.8125 -0.1875 C6.89144531 -0.22230469 7.97039062 -0.25710937 9.08203125 -0.29296875 C12 0 12 0 13.86328125 1.10546875 C15.54942995 3.91571658 15.39695741 6.25030399 15.375 9.5 C15.38273437 10.6446875 15.39046875 11.789375 15.3984375 12.96875 C15 16 15 16 13.95703125 17.89453125 C10.87982044 19.63275612 7.74090554 19.3123439 4.3125 19.1875 C3.61060547 19.17396484 2.90871094 19.16042969 2.18554688 19.14648438 C0.45670171 19.11120182 -1.27174765 19.05739583 -3 19 C-3 18.67 -3 18.34 -3 18 C0.3 18 3.6 18 7 18 C7 17.34 7 16.68 7 16 C5.02 16 3.04 16 1 16 C1 15.67 1 15.34 1 15 C5.455 14.505 5.455 14.505 10 14 C10.33 11.03 10.66 8.06 11 5 C7.7 5 4.4 5 1 5 C0.67 3.35 0.34 1.7 0 0 Z " fill="#2486C0" transform="translate(71,114)"/>
<path d="M0 0 C4.29 0 8.58 0 13 0 C13 3.63 13 7.26 13 11 C8.71 11 4.42 11 0 11 C0 7.37 0 3.74 0 0 Z " fill="#D9F3FA" transform="translate(43,118)"/>
<path d="M0 0 C-3.02272532 3.25524265 -6.25718301 5.61820737 -10 8 C-8.55476763 11.44573823 -6.7397849 13.32071535 -3.875 15.6875 C-2.56804553 16.773528 -1.27185873 17.87307401 0 19 C0 19.33 0 19.66 0 20 C-3.0625 20.4375 -3.0625 20.4375 -7 20 C-9.68747733 17.96386646 -11.80076852 15.54218094 -14 13 C-14.58265625 12.51144531 -15.1653125 12.02289063 -15.765625 11.51953125 C-17 10 -17 10 -16.91015625 8.015625 C-13.75179875 1.02115089 -6.98900229 -0.74882167 0 0 Z " fill="#2280BB" transform="translate(95,72)"/>
<path d="M0 0 C1.65 0 3.3 0 5 0 C5 9.24 5 18.48 5 28 C3.35 28 1.7 28 0 28 C0 18.76 0 9.52 0 0 Z " fill="#2F88C4" transform="translate(72,64)"/>
<path d="M0 0 C1.65 0 3.3 0 5 0 C5 8.91 5 17.82 5 27 C3.35 27 1.7 27 0 27 C0 18.09 0 9.18 0 0 Z " fill="#2E89B9" transform="translate(9,65)"/>
<path d="M0 0 C3.96 0 7.92 0 12 0 C12 3.3 12 6.6 12 10 C8.04 10 4.08 10 0 10 C0 6.7 0 3.4 0 0 Z " fill="#E9FCFE" transform="translate(95,119)"/>
<path d="M0 0 C1.65 0 3.3 0 5 0 C5 6.6 5 13.2 5 20 C3.35 20 1.7 20 0 20 C0 13.4 0 6.8 0 0 Z " fill="#3894C6" transform="translate(137,114)"/>
<path d="M0 0 C1.65 0 3.3 0 5 0 C5 6.6 5 13.2 5 20 C3.35 20 1.7 20 0 20 C0 13.4 0 6.8 0 0 Z " fill="#328CC1" transform="translate(39,72)"/>
<path d="M0 0 C1.00836914 -0.01740234 1.00836914 -0.01740234 2.03710938 -0.03515625 C4.82177961 -0.01856437 6.95706871 0.09538899 9.390625 1.51171875 C10.92345102 4.23992028 10.72502724 6.46165551 10.625 9.5625 C10.59792969 10.64917969 10.57085937 11.73585938 10.54296875 12.85546875 C10.50816406 13.68691406 10.47335938 14.51835937 10.4375 15.375 C9.4475 15.375 8.4575 15.375 7.4375 15.375 C6.9425 10.425 6.9425 10.425 6.4375 5.375 C2.4775 5.045 -1.4825 4.715 -5.5625 4.375 C-5.5625 4.045 -5.5625 3.715 -5.5625 3.375 C-2.2625 3.375 1.0375 3.375 4.4375 3.375 C4.4375 2.715 4.4375 2.055 4.4375 1.375 C2.68679483 1.48970137 0.93692464 1.61719028 -0.8125 1.75 C-2.27429688 1.85441406 -2.27429688 1.85441406 -3.765625 1.9609375 C-6.87834202 2.2734174 -6.87834202 2.2734174 -10.5625 4.375 C-10.5625 8.005 -10.5625 11.635 -10.5625 15.375 C-10.8925 15.375 -11.2225 15.375 -11.5625 15.375 C-11.67057131 13.43872231 -11.7481225 11.50072244 -11.8125 9.5625 C-11.85890625 8.48355469 -11.9053125 7.40460938 -11.953125 6.29296875 C-11.5625 3.375 -11.5625 3.375 -10.01953125 1.51171875 C-6.5975111 -0.07144161 -3.75727753 -0.02203682 0 0 Z " fill="#1B82BF" transform="translate(49.5625,113.625)"/>
<path d="M0 0 C0.80566406 0.00322266 1.61132812 0.00644531 2.44140625 0.00976562 C3.70404297 0.02233398 3.70404297 0.02233398 4.9921875 0.03515625 C5.84167969 0.03966797 6.69117188 0.04417969 7.56640625 0.04882812 C9.66669659 0.06062751 11.7669508 0.07856319 13.8671875 0.09765625 C13.8671875 0.42765625 13.8671875 0.75765625 13.8671875 1.09765625 C12.66320312 1.13503906 11.45921875 1.17242187 10.21875 1.2109375 C8.64319739 1.27658553 7.06767796 1.34303326 5.4921875 1.41015625 C4.698125 1.43271484 3.9040625 1.45527344 3.0859375 1.47851562 C1.00503169 1.575507 -1.06722582 1.8276045 -3.1328125 2.09765625 C-5.35979985 5.43813728 -5.4040046 6.63051206 -5.3828125 10.53515625 C-5.38796875 11.48261719 -5.393125 12.43007812 -5.3984375 13.40625 C-5.13029339 16.12318078 -4.51812392 17.77231208 -3.1328125 20.09765625 C-5.4428125 20.42765625 -7.7528125 20.75765625 -10.1328125 21.09765625 C-9.8028125 14.49765625 -9.4728125 7.89765625 -9.1328125 1.09765625 C-8.1428125 1.09765625 -7.1528125 1.09765625 -6.1328125 1.09765625 C-3.8362755 -0.05061225 -2.54968083 -0.0179555 0 0 Z " fill="#DAF4FD" transform="translate(152.1328125,112.90234375)"/>
<path d="M0 0 C4.62 0 9.24 0 14 0 C14 1.65 14 3.3 14 5 C5.21276596 7.38297872 5.21276596 7.38297872 1 7 C0.67 6.67 0.34 6.34 0 6 C0 4.02 0 2.04 0 0 Z " fill="#F2FDFD" transform="translate(14,113)"/>
<path d="M0 0 C0.99 0.495 0.99 0.495 2 1 C2 2.98 2 4.96 2 7 C5.3 7.33 8.6 7.66 12 8 C12 8.33 12 8.66 12 9 C8.7 9 5.4 9 2 9 C2.33 10.32 2.66 11.64 3 13 C6.3 13.33 9.6 13.66 13 14 C13.09765625 20.93359375 13.09765625 20.93359375 13 23 C12.67 23.33 12.34 23.66 12 24 C8.04 24 4.08 24 0 24 C0 16.08 0 8.16 0 0 Z M1 15 C1 17.64 1 20.28 1 23 C4.63 23 8.26 23 12 23 C12 20.36 12 17.72 12 15 C8.37 15 4.74 15 1 15 Z " fill="#C5F1FC" transform="translate(69,105)"/>
<path d="M0 0 C0.33 0 0.66 0 1 0 C1 2.64 1 5.28 1 8 C6.61 8.33 12.22 8.66 18 9 C18 10.32 18 11.64 18 13 C15.58145554 13.13536629 13.17050217 13.23420279 10.75 13.3125 C9.72712891 13.3753418 9.72712891 13.3753418 8.68359375 13.43945312 C4.88287869 13.53170349 3.34479121 13.32457366 0.53515625 10.6796875 C-1.28796814 7.49733806 -1.4014465 5.61301848 -1 2 C-0.67 1.34 -0.34 0.68 0 0 Z " fill="#1781C3" transform="translate(148,120)"/>
<path d="M0 0 C0.66 0.33 1.32 0.66 2 1 C2.25 3.8125 2.25 3.8125 2 7 C-0.5281631 9.84418348 -2.05188698 10.00390715 -5.890625 10.29296875 C-7.34404009 10.27314945 -8.79731167 10.23754845 -10.25 10.1875 C-11.36761719 10.16719727 -11.36761719 10.16719727 -12.5078125 10.14648438 C-14.33885416 10.11127204 -16.16952169 10.05746851 -18 10 C-18 8.68 -18 7.36 -18 6 C-15.56242587 5.97301578 -13.12515085 5.95316901 -10.6875 5.9375 C-9.99720703 5.92912109 -9.30691406 5.92074219 -8.59570312 5.91210938 C-5.4516975 5.89692094 -3.00579981 5.99806673 0 7 C0 4.69 0 2.38 0 0 Z " fill="#217DBA" transform="translate(187,123)"/>
<path d="M0 0 C1.98 0 3.96 0 6 0 C6 0.33 6 0.66 6 1 C4.35 1 2.7 1 1 1 C1 1.99 1 2.98 1 4 C2.98 4 4.96 4 7 4 C7 8.62 7 13.24 7 18 C7.99 18 8.98 18 10 18 C9.98839844 17.00097656 9.97679688 16.00195312 9.96484375 14.97265625 C9.95582031 13.68230469 9.94679688 12.39195313 9.9375 11.0625 C9.92589844 9.77472656 9.91429688 8.48695312 9.90234375 7.16015625 C10 4 10 4 11 3 C12.99958364 2.95919217 15.00045254 2.95745644 17 3 C17 2.34 17 1.68 17 1 C15.02 1 13.04 1 11 1 C11 0.67 11 0.34 11 0 C13.64 0 16.28 0 19 0 C19 1.65 19 3.3 19 5 C16.36 5 13.72 5 11 5 C11 9.62 11 14.24 11 19 C9.35 19 7.7 19 6 19 C6 14.38 6 9.76 6 5 C4.02 5 2.04 5 0 5 C0 3.35 0 1.7 0 0 Z " fill="#368CBD" transform="translate(115,114)"/>
<path d="M0 0 C0.66 0.66 1.32 1.32 2 2 C1.6730244 4.61580479 1.17960932 6.64078137 0 9 C-1.65 9 -3.3 9 -5 9 C-5 15.6 -5 22.2 -5 29 C-7.95664519 30.4783226 -10.74229737 30.06032783 -14 30 C-14 29.67 -14 29.34 -14 29 C-12.02 29 -10.04 29 -8 29 C-6.81426917 23.07134585 -7.01131828 17.38228865 -7.16015625 11.36328125 C-7 8 -7 8 -5 5 C-2.375 4.8125 -2.375 4.8125 0 5 C0 3.35 0 1.7 0 0 Z " fill="#E7FCFD" transform="translate(44,63)"/>
<path d="M0 0 C-0.99 1.485 -0.99 1.485 -2 3 C-2.28057679 6.10112786 -2.28057679 6.10112786 -2.1875 9.5 C-2.18105469 10.6446875 -2.17460938 11.789375 -2.16796875 12.96875 C-2.13084584 16.04622101 -2.13084584 16.04622101 -1 19 C-0.34 19.33 0.32 19.66 1 20 C-0.9375 19.625 -0.9375 19.625 -3 19 C-4.4783226 16.04335481 -4.06032783 13.25770263 -4 10 C-4.66 10 -5.32 10 -6 10 C-6 13.3 -6 16.6 -6 20 C-6.33 20 -6.66 20 -7 20 C-7 13.4 -7 6.8 -7 0 C-4.3333581 -1.33332095 -2.83319697 -0.67102033 0 0 Z " fill="#DFFAFE" transform="translate(51,72)"/>
<path d="M0 0 C0.33 0 0.66 0 1 0 C1 7.59 1 15.18 1 23 C1.66 23 2.32 23 3 23 C3 16.73 3 10.46 3 4 C3.66 4 4.32 4 5 4 C5 10.93 5 17.86 5 25 C3.35 25 1.7 25 0 25 C0 16.75 0 8.5 0 0 Z " fill="#3A8FBD" transform="translate(8,108)"/>
<path d="M0 0 C0.66 0.33 1.32 0.66 2 1 C4.87910588 1.23274209 7.74146495 1.41972757 10.625 1.5625 C11.42679688 1.60568359 12.22859375 1.64886719 13.0546875 1.69335938 C15.0362511 1.79951457 17.01810271 1.90026855 19 2 C19 2.33 19 2.66 19 3 C14.05 3 9.1 3 4 3 C4 5.97 4 8.94 4 12 C3.34 12 2.68 12 2 12 C1.67 10.02 1.34 8.04 1 6 C0.67386382 10.67461851 1.29417212 13.16674383 4 17 C0.125 15.25 0.125 15.25 -1 13 C-1.09608608 11.16871229 -1.12982579 9.33380041 -1.125 7.5 C-1.12757813 6.5203125 -1.13015625 5.540625 -1.1328125 4.53125 C-1 2 -1 2 0 0 Z " fill="#469CCB" transform="translate(147,116)"/>
<path d="M0 0 C0.33 0 0.66 0 1 0 C1.33 8.58 1.66 17.16 2 26 C0.02 26.66 -1.96 27.32 -4 28 C-3.67 27.34 -3.34 26.68 -3 26 C-2.85148156 24.06640414 -2.77869167 22.12657903 -2.75 20.1875 C-2.72421875 19.14980469 -2.6984375 18.11210938 -2.671875 17.04296875 C-3.03898251 13.63848364 -4.0500752 11.77607715 -6 9 C-2.125 9.875 -2.125 9.875 -1 11 C-0.67 7.37 -0.34 3.74 0 0 Z " fill="#E4FBFE" transform="translate(63,105)"/>
<path d="M0 0 C0 1.65 0 3.3 0 5 C1.98 5 3.96 5 6 5 C6 9.62 6 14.24 6 19 C7.65 19 9.3 19 11 19 C11 19.33 11 19.66 11 20 C9.02 20 7.04 20 5 20 C5 15.38 5 10.76 5 6 C3.02 6 1.04 6 -1 6 C-1.03738281 6.84304687 -1.07476562 7.68609375 -1.11328125 8.5546875 C-1.17902344 9.65039062 -1.24476562 10.74609375 -1.3125 11.875 C-1.37050781 12.96554688 -1.42851563 14.05609375 -1.48828125 15.1796875 C-1.65714844 16.11039063 -1.82601562 17.04109375 -2 18 C-2.99 18.66 -3.98 19.32 -5 20 C-5 17 -5 17 -4 15 C-4.00881174 11.65153889 -4.13196764 8.31474285 -4.2578125 4.96875 C-4.17273438 3.9890625 -4.08765625 3.009375 -4 2 C-1 0 -1 0 0 0 Z " fill="#CCF0FB" transform="translate(115,114)"/>
<path d="M0 0 C0.66 0 1.32 0 2 0 C2.66 2.97 3.32 5.94 4 9 C10.27 9.33 16.54 9.66 23 10 C23 10.33 23 10.66 23 11 C21.96359375 11.06058594 20.9271875 11.12117188 19.859375 11.18359375 C18.48957127 11.26803371 17.11978025 11.35267997 15.75 11.4375 C14.72712891 11.49647461 14.72712891 11.49647461 13.68359375 11.55664062 C10.33260727 11.76811065 7.24494198 12.1760035 4 13 C0.47721237 12.62918025 -2.63856499 12.12047834 -6 11 C-6 10.67 -6 10.34 -6 10 C-4.02 10 -2.04 10 0 10 C0 6.7 0 3.4 0 0 Z " fill="#EEFDFC" transform="translate(45,82)"/>
<path d="M0 0 C4.95 0 9.9 0 15 0 C15 1.32 15 2.64 15 4 C9.39 4 3.78 4 -2 4 C-1.34 2.68 -0.68 1.36 0 0 Z " fill="#197DB3" transform="translate(172,114)"/>
<path d="M0 0 C0.75732422 0.00966797 1.51464844 0.01933594 2.29492188 0.02929688 C3.08060547 0.05443359 3.86628906 0.07957031 4.67578125 0.10546875 C5.87170898 0.12577148 5.87170898 0.12577148 7.09179688 0.14648438 C9.05758092 0.18179786 11.02301707 0.23560428 12.98828125 0.29296875 C12.98828125 1.94296875 12.98828125 3.59296875 12.98828125 5.29296875 C8.36828125 5.29296875 3.74828125 5.29296875 -1.01171875 5.29296875 C-1.01171875 4.96296875 -1.01171875 4.63296875 -1.01171875 4.29296875 C3.27828125 4.29296875 7.56828125 4.29296875 11.98828125 4.29296875 C11.98828125 3.30296875 11.98828125 2.31296875 11.98828125 1.29296875 C4.06828125 1.78796875 4.06828125 1.78796875 -4.01171875 2.29296875 C-4.67171875 6.91296875 -5.33171875 11.53296875 -6.01171875 16.29296875 C-6.34171875 16.29296875 -6.67171875 16.29296875 -7.01171875 16.29296875 C-7.09273935 14.1894338 -7.15091782 12.08500923 -7.19921875 9.98046875 C-7.23402344 8.80871094 -7.26882812 7.63695313 -7.3046875 6.4296875 C-7.01171875 3.29296875 -7.01171875 3.29296875 -5.74414062 1.61523438 C-3.63663557 0.00668768 -2.6226862 -0.05915834 0 0 Z " fill="#3689BD" transform="translate(55.01171875,71.70703125)"/>
<path d="M0 0 C0.98484375 0.02707031 1.9696875 0.05414063 2.984375 0.08203125 C3.73203125 0.11683594 4.4796875 0.15164062 5.25 0.1875 C5.25 0.8475 5.25 1.5075 5.25 2.1875 C4.53972656 2.24808594 3.82945313 2.30867188 3.09765625 2.37109375 C2.17855469 2.45488281 1.25945313 2.53867188 0.3125 2.625 C-1.06228516 2.74681641 -1.06228516 2.74681641 -2.46484375 2.87109375 C-4.71159732 2.94794976 -4.71159732 2.94794976 -5.75 4.1875 C-5.98192865 5.70219448 -6.16215238 7.22504562 -6.3125 8.75 C-6.39628906 9.57628906 -6.48007812 10.40257813 -6.56640625 11.25390625 C-6.62699219 11.89199219 -6.68757813 12.53007813 -6.75 13.1875 C-7.41 13.1875 -8.07 13.1875 -8.75 13.1875 C-9.08 13.8475 -9.41 14.5075 -9.75 15.1875 C-9.85807131 13.25122231 -9.9356225 11.31322244 -10 9.375 C-10.04640625 8.29605469 -10.0928125 7.21710938 -10.140625 6.10546875 C-9.75 3.1875 -9.75 3.1875 -8.09375 1.3125 C-5.20684896 -0.0732125 -3.1883886 -0.11387102 0 0 Z " fill="#1283CB" transform="translate(48.75,114.8125)"/>
<path d="M0 0 C4.29 0 8.58 0 13 0 C13 0.66 13 1.32 13 2 C11.68 2.33 10.36 2.66 9 3 C9 4.65 9 6.3 9 8 C6.03 6.35 3.06 4.7 0 3 C0 2.01 0 1.02 0 0 Z " fill="#0F89D7" transform="translate(17,121)"/>
<path d="M0 0 C0.33 0 0.66 0 1 0 C1.0810206 2.10353495 1.13919907 4.20795952 1.1875 6.3125 C1.23970703 8.07013672 1.23970703 8.07013672 1.29296875 9.86328125 C1 13 1 13 -0.03125 14.90625 C-3.11993655 16.62218697 -6.25758998 16.31239868 -9.6875 16.1875 C-10.38939453 16.17396484 -11.09128906 16.16042969 -11.81445312 16.14648438 C-13.54329829 16.11120182 -15.27174765 16.05739583 -17 16 C-17 15.67 -17 15.34 -17 15 C-13.7 15 -10.4 15 -7 15 C-7 14.34 -7 13.68 -7 13 C-8.98 13 -10.96 13 -13 13 C-13 12.67 -13 12.34 -13 12 C-8.71 12 -4.42 12 0 12 C0 8.04 0 4.08 0 0 Z " fill="#2079B6" transform="translate(85,117)"/>
<path d="M0 0 C1.8871875 0.0309375 1.8871875 0.0309375 3.8125 0.0625 C3.8125 0.7225 3.8125 1.3825 3.8125 2.0625 C4.4725 2.0625 5.1325 2.0625 5.8125 2.0625 C6.9375 6.8125 6.9375 6.8125 5.8125 9.0625 C4.8225 9.0625 3.8325 9.0625 2.8125 9.0625 C2.8125 7.0825 2.8125 5.1025 2.8125 3.0625 C-0.4875 3.0625 -3.7875 3.0625 -7.1875 3.0625 C-7.1875 2.4025 -7.1875 1.7425 -7.1875 1.0625 C-4.43671116 0.14557039 -2.82801087 -0.04636083 0 0 Z " fill="#1390D0" transform="translate(181.1875,120.9375)"/>
<path d="M0 0 C4.29 0 8.58 0 13 0 C13 1.32 13 2.64 13 4 C10.54101345 4.08076963 8.08466258 4.14037143 5.625 4.1875 C4.57699219 4.22520508 4.57699219 4.22520508 3.5078125 4.26367188 C1.4765625 4.29296875 1.4765625 4.29296875 -2 4 C-2.66 3.01 -3.32 2.02 -4 1 C-1.69 1.66 0.62 2.32 3 3 C3 2.34 3 1.68 3 1 C2.01 0.67 1.02 0.34 0 0 Z " fill="#1A7BBB" transform="translate(95,129)"/>
<path d="M0 0 C4.95 0 9.9 0 15 0 C14.67 0.66 14.34 1.32 14 2 C11.27734375 2.4140625 11.27734375 2.4140625 7.9375 2.625 C6.83277344 2.69976562 5.72804688 2.77453125 4.58984375 2.8515625 C3.73519531 2.90054688 2.88054688 2.94953125 2 3 C1.67 4.98 1.34 6.96 1 9 C5.62 9 10.24 9 15 9 C15 9.33 15 9.66 15 10 C10.05 10 5.1 10 0 10 C0 6.7 0 3.4 0 0 Z " fill="#D1F8FE" transform="translate(53,77)"/>
<path d="M0 0 C-1.65 0.33 -3.3 0.66 -5 1 C-5 2.65 -5 4.3 -5 6 C-4.4225 6.0825 -3.845 6.165 -3.25 6.25 C-0.3840696 7.20531013 0.9990764 8.78469173 3 11 C2.01 11.495 2.01 11.495 1 12 C0.67 11.34 0.34 10.68 0 10 C-2.52733235 9.34444881 -2.52733235 9.34444881 -5 9 C-5.33 11.64 -5.66 14.28 -6 17 C-6.33 17 -6.66 17 -7 17 C-7 11.39 -7 5.78 -7 0 C-3 -1 -3 -1 0 0 Z " fill="#D7F8FC" transform="translate(21,75)"/>
<path d="M0 0 C1.98 0 3.96 0 6 0 C6.33 3.3 6.66 6.6 7 10 C8.65 10.33 10.3 10.66 12 11 C11.195625 11.721875 10.39125 12.44375 9.5625 13.1875 C6.97707928 16.02515689 6.31957187 17.27166147 6 21 C5.67 21 5.34 21 5 21 C5 14.4 5 7.8 5 1 C3.35 1 1.7 1 0 1 C0 0.67 0 0.34 0 0 Z " fill="#DAF4F8" transform="translate(72,63)"/>
<path d="M0 0 C0.33 0 0.66 0 1 0 C1.04898438 0.67546875 1.09796875 1.3509375 1.1484375 2.046875 C1.22320312 2.93890625 1.29796875 3.8309375 1.375 4.75 C1.44460937 5.63171875 1.51421875 6.5134375 1.5859375 7.421875 C1.99850055 9.99066382 2.71160957 11.75841015 4 14 C1.69 14.33 -0.62 14.66 -3 15 C-2.8858134 13.06183265 -2.75826577 11.12444901 -2.625 9.1875 C-2.55539063 8.10855469 -2.48578125 7.02960938 -2.4140625 5.91796875 C-2 3 -2 3 0 0 Z " fill="#E3FBFE" transform="translate(145,119)"/>
<path d="M0 0 C0.66 0.99 1.32 1.98 2 3 C3.32 3.33 4.64 3.66 6 4 C6 8.62 6 13.24 6 18 C5.34 18 4.68 18 4 18 C3.67 14.37 3.34 10.74 3 7 C2.67 9.64 2.34 12.28 2 15 C1.67 15 1.34 15 1 15 C0.92652344 13.86111328 0.92652344 13.86111328 0.8515625 12.69921875 C0.77679688 11.70535156 0.70203125 10.71148437 0.625 9.6875 C0.55539063 8.70136719 0.48578125 7.71523437 0.4140625 6.69921875 C0.16134528 3.78471567 0.16134528 3.78471567 -2 1 C-1.34 0.67 -0.68 0.34 0 0 Z " fill="#C5E8F9" transform="translate(85,113)"/>
<path d="M0 0 C3.6969041 0.24646027 5.54337041 0.60345325 8.375 3.0625 C8.91125 3.701875 9.4475 4.34125 10 5 C7.03 5 4.06 5 1 5 C0.67 5.99 0.34 6.98 0 8 C-0.33 8 -0.66 8 -1 8 C-1.04241723 5.66705225 -1.04092937 3.33297433 -1 1 C-0.67 0.67 -0.34 0.34 0 0 Z " fill="#E4F9FE" transform="translate(14,125)"/>
<path d="M0 0 C1.09924805 -0.01740234 1.09924805 -0.01740234 2.22070312 -0.03515625 C4.34765625 -0.0234375 4.34765625 -0.0234375 7.9375 0.375 C8.5975 1.365 9.2575 2.355 9.9375 3.375 C9.3909375 3.21386719 8.844375 3.05273438 8.28125 2.88671875 C5.6147975 2.30454329 3.16603911 2.20623997 0.4375 2.1875 C-0.5009375 2.17332031 -1.439375 2.15914063 -2.40625 2.14453125 C-5.24348012 2.39070269 -6.81759511 2.6089395 -9.0625 4.375 C-9.76623017 7.02287088 -9.76623017 7.02287088 -9.8125 10 C-9.86921875 11.00289062 -9.9259375 12.00578125 -9.984375 13.0390625 C-10.01015625 13.80992188 -10.0359375 14.58078125 -10.0625 15.375 C-10.3925 15.375 -10.7225 15.375 -11.0625 15.375 C-11.14357583 13.43818839 -11.20172475 11.5004066 -11.25 9.5625 C-11.28480469 8.48355469 -11.31960937 7.40460938 -11.35546875 6.29296875 C-11.0625 3.375 -11.0625 3.375 -10.0546875 1.51171875 C-6.86644151 -0.3074569 -3.56725017 -0.05677321 0 0 Z " fill="#247EB4" transform="translate(101.0625,113.625)"/>
<path d="M0 0 C0.99 0.33 1.98 0.66 3 1 C5.56634861 1.22718496 8.11678107 1.41608184 10.6875 1.5625 C11.7403418 1.62727539 11.7403418 1.62727539 12.81445312 1.69335938 C14.54275206 1.7991736 16.2713511 1.90006581 18 2 C18 2.66 18 3.32 18 4 C12.72 4 7.44 4 2 4 C1.34 2.68 0.68 1.36 0 0 Z " fill="#CDEDFB" transform="translate(65,131)"/>
<path d="M0 0 C0.69738281 0.01353516 1.39476562 0.02707031 2.11328125 0.04101562 C3.82585541 0.0762055 5.53802941 0.13000845 7.25 0.1875 C7.58 0.8475 7.91 1.5075 8.25 2.1875 C7.21359375 2.16429688 6.1771875 2.14109375 5.109375 2.1171875 C3.73959056 2.09842333 2.3697983 2.08022382 1 2.0625 C-0.02287109 2.03736328 -0.02287109 2.03736328 -1.06640625 2.01171875 C-5.13537077 1.97221424 -6.99899321 2.31199661 -10.75 4.1875 C-10.75 7.8175 -10.75 11.4475 -10.75 15.1875 C-11.08 15.1875 -11.41 15.1875 -11.75 15.1875 C-11.85807131 13.25122231 -11.9356225 11.31322244 -12 9.375 C-12.04640625 8.29605469 -12.0928125 7.21710938 -12.140625 6.10546875 C-11.75 3.1875 -11.75 3.1875 -10.21875 1.3125 C-6.81512214 -0.23852029 -3.65823196 -0.13484976 0 0 Z " fill="#408EC0" transform="translate(49.75,113.8125)"/>
<path d="M0 0 C-3.63719605 2.42479736 -5.85703482 2.38662577 -10.1875 2.625 C-11.45980469 2.69976562 -12.73210937 2.77453125 -14.04296875 2.8515625 C-15.01878906 2.90054688 -15.99460938 2.94953125 -17 3 C-17.33 2.01 -17.66 1.02 -18 0 C-15.3753399 -0.19430855 -12.75053235 -0.38073238 -10.125 -0.5625 C-9.00544922 -0.64661133 -9.00544922 -0.64661133 -7.86328125 -0.73242188 C-2.2265625 -1.11328125 -2.2265625 -1.11328125 0 0 Z " fill="#C0E9FA" transform="translate(187,133)"/>
<path d="M0 0 C1.65 0 3.3 0 5 0 C5 2.31 5 4.62 5 7 C3.35 7 1.7 7 0 7 C0 4.69 0 2.38 0 0 Z " fill="#288ABD" transform="translate(121,107)"/>
<path d="M0 0 C0.33 0 0.66 0 1 0 C1.10841951 1.91541138 1.18578079 3.83259773 1.25 5.75 C1.29640625 6.81734375 1.3428125 7.8846875 1.390625 8.984375 C0.91735478 12.63802112 -0.19155042 13.72228105 -3 16 C-3.93619813 12.84493858 -4.1057123 10.03413498 -4.0625 6.75 C-4.05347656 5.85796875 -4.04445313 4.9659375 -4.03515625 4.046875 C-4.02355469 3.37140625 -4.01195313 2.6959375 -4 2 C-3.67 2 -3.34 2 -3 2 C-3 4.97 -3 7.94 -3 11 C-2.01 11 -1.02 11 0 11 C0 7.37 0 3.74 0 0 Z " fill="#3C91C2" transform="translate(111,117)"/>
<path d="M0 0 C0 3.63 0 7.26 0 11 C-0.99 11 -1.98 11 -3 11 C-3.33 7.7 -3.66 4.4 -4 1 C-2 0 -2 0 0 0 Z " fill="#1188C9" transform="translate(111,117)"/>
<path d="M0 0 C0.66 0.33 1.32 0.66 2 1 C2 4.63 2 8.26 2 12 C0.02 12.66 -1.96 13.32 -4 14 C-3.525625 13.360625 -3.05125 12.72125 -2.5625 12.0625 C-0.52968613 8.07818481 -0.2789471 4.41505926 0 0 Z " fill="#E5FAFD" transform="translate(87,119)"/>
<path d="M0 0 C0.556875 0.474375 1.11375 0.94875 1.6875 1.4375 C4.18346074 3.12395996 6.0446237 3.58953107 9 4 C9 5.98 9 7.96 9 10 C8.67 8.68 8.34 7.36 8 6 C5.36 6 2.72 6 0 6 C0 4.02 0 2.04 0 0 Z " fill="#D1F1FA" transform="translate(126,108)"/>
<path d="M0 0 C0.33 0.99 0.66 1.98 1 3 C0.01 4.485 0.01 4.485 -1 6 C-0.34 6.33 0.32 6.66 1 7 C0.67 8.32 0.34 9.64 0 11 C-1.65 9.35 -3.3 7.7 -5 6 C-3.86695008 2.60085025 -2.87481525 1.94745549 0 0 Z " fill="#C5EBF7" transform="translate(89,76)"/>
<path d="M0 0 C0.86625 0.144375 1.7325 0.28875 2.625 0.4375 C2.625 1.0975 2.625 1.7575 2.625 2.4375 C-0.36378754 4.43002503 -1.95386212 4.7699609 -5.375 5.4375 C-6.72027482 6.07972885 -8.05596332 6.74297538 -9.375 7.4375 C-4.43845733 0.57535558 -4.43845733 0.57535558 0 0 Z " fill="#3383B2" transform="translate(33.375,64.5625)"/>
<path d="M0 0 C0.99 0.33 1.98 0.66 3 1 C1.7874262 4.72433382 0.49140021 8.37802806 -1 12 C-1.33 12 -1.66 12 -2 12 C-2.05422947 10.5629191 -2.09289723 9.12524538 -2.125 7.6875 C-2.14820313 6.88699219 -2.17140625 6.08648437 -2.1953125 5.26171875 C-2 3 -2 3 0 0 Z " fill="#148BD4" transform="translate(51,76)"/>
<path d="M0 0 C0.75 1.6875 0.75 1.6875 1 4 C-0.9375 6.75 -0.9375 6.75 -3 9 C-2.34 9.33 -1.68 9.66 -1 10 C-1.66 10.66 -2.32 11.32 -3 12 C-4.32 11.01 -5.64 10.02 -7 9 C-5.73958325 5.21874975 -4.31129455 4.98677673 -1 3 C-0.67 2.01 -0.34 1.02 0 0 Z " fill="#CBF2FB" transform="translate(34,118)"/>
<path d="M0 0 C0.66 0 1.32 0 2 0 C2.33 3.96 2.66 7.92 3 12 C2.01 12 1.02 12 0 12 C0 8.04 0 4.08 0 0 Z " fill="#0E88D6" transform="translate(91,118)"/>
<path d="M0 0 C2.97 0.33 5.94 0.66 9 1 C9 1.66 9 2.32 9 3 C6.03 3.66 3.06 4.32 0 5 C0 3.35 0 1.7 0 0 Z " fill="#0C92DD" transform="translate(123,114)"/>
<path d="M0 0 C2.97 0.495 2.97 0.495 6 1 C6 1.66 6 2.32 6 3 C3.23547967 4.38226016 0.9538637 4.09525387 -2.125 4.0625 C-3.22070312 4.05347656 -4.31640625 4.04445313 -5.4453125 4.03515625 C-6.70988281 4.01775391 -6.70988281 4.01775391 -8 4 C-8 3.67 -8 3.34 -8 3 C-5.36 2.67 -2.72 2.34 0 2 C0 1.34 0 0.68 0 0 Z " fill="#369BD3" transform="translate(103,115)"/>
<path d="M0 0 C4.62 0 9.24 0 14 0 C14 1.32 14 2.64 14 4 C12.68 3.67 11.36 3.34 10 3 C10 2.67 10 2.34 10 2 C6.7 1.67 3.4 1.34 0 1 C0 0.67 0 0.34 0 0 Z " fill="#2575A4" transform="translate(152,129)"/>
<path d="M0 0 C0.99 0.33 1.98 0.66 3 1 C3 4.63 3 8.26 3 12 C2.34 12 1.68 12 1 12 C0.67 8.04 0.34 4.08 0 0 Z " fill="#0C82CC" transform="translate(56,117)"/>
<path d="M0 0 C1.65 0 3.3 0 5 0 C5 1.65 5 3.3 5 5 C3.35 5 1.7 5 0 5 C0 3.35 0 1.7 0 0 Z " fill="#5D9BC1" transform="translate(137,105)"/>
<path d="M0 0 C0.33 0.99 0.66 1.98 1 3 C0.34 3.66 -0.32 4.32 -1 5 C-1.64767793 7.57061311 -1.64767793 7.57061311 -2 10 C-3.32 8.68 -4.64 7.36 -6 6 C-4.02 4.02 -2.04 2.04 0 0 Z " fill="#D0F3FE" transform="translate(29,72)"/>
<path d="M0 0 C0.99 0.66 1.98 1.32 3 2 C1.35 3.65 -0.3 5.3 -2 7 C-2.99 6.67 -3.98 6.34 -5 6 C-5 5.34 -5 4.68 -5 4 C-3.37373596 2.61767557 -1.7074998 1.28062485 0 0 Z " fill="#1879B7" transform="translate(29,68)"/>
<path d="M0 0 C1.32 0 2.64 0 4 0 C4 1.65 4 3.3 4 5 C2.35 5 0.7 5 -1 5 C-0.67 3.35 -0.34 1.7 0 0 Z " fill="#549BB6" transform="translate(40,63)"/>
<path d="M0 0 C0.33 0 0.66 0 1 0 C1.24915939 1.76813112 1.47366632 3.53974982 1.6875 5.3125 C1.81511719 6.29863281 1.94273438 7.28476563 2.07421875 8.30078125 C2 11 2 11 0.51953125 12.85546875 C0.01808594 13.23316406 -0.48335937 13.61085937 -1 14 C-1.66 13.01 -2.32 12.02 -3 11 C-2.67 10.34 -2.34 9.68 -2 9 C-1.34 9 -0.68 9 0 9 C0 6.03 0 3.06 0 0 Z " fill="#318BBF" transform="translate(42,119)"/>
<path d="M0 0 C0.33 0 0.66 0 1 0 C1 2.64 1 5.28 1 8 C1.99 8.33 2.98 8.66 4 9 C4 9.66 4 10.32 4 11 C0.125 9.125 0.125 9.125 -1 8 C-1.23529412 2.47058824 -1.23529412 2.47058824 0 0 Z " fill="#118CD4" transform="translate(148,120)"/>
<path d="M0 0 C0.33 0 0.66 0 1 0 C1.03738281 0.66386719 1.07476562 1.32773438 1.11328125 2.01171875 C1.4899103 7.07036379 1.81205295 10.84180819 5 15 C1.125 13.25 1.125 13.25 0 11 C-0.07033769 9.12620395 -0.0843022 7.24998898 -0.0625 5.375 C-0.05347656 4.37210937 -0.04445312 3.36921875 -0.03515625 2.3359375 C-0.02355469 1.56507812 -0.01195312 0.79421875 0 0 Z " fill="#388CBE" transform="translate(146,118)"/>
<path d="M0 0 C0.66 0 1.32 0 2 0 C2 2.31 2 4.62 2 7 C0.02 7 -1.96 7 -4 7 C-3.67 6.34 -3.34 5.68 -3 5 C-2.01 5 -1.02 5 0 5 C0 3.35 0 1.7 0 0 Z " fill="#CDF0FB" transform="translate(119,107)"/>
<path d="M0 0 C0.33 0 0.66 0 1 0 C1 3.63 1 7.26 1 11 C1.99 11 2.98 11 4 11 C4 11.66 4 12.32 4 13 C2.35 12.67 0.7 12.34 -1 12 C-0.67 8.04 -0.34 4.08 0 0 Z " fill="#3A98CD" transform="translate(94,119)"/>
<path d="M0 0 C1.65 1.65 3.3 3.3 5 5 C2.69 5 0.38 5 -2 5 C-2.33 4.34 -2.66 3.68 -3 3 C-2.01 2.67 -1.02 2.34 0 2 C0 1.34 0 0.68 0 0 Z " fill="#488BB5" transform="translate(90,87)"/>
<path d="M0 0 C0.33 0 0.66 0 1 0 C1 2.64 1 5.28 1 8 C-0.32 7.67 -1.64 7.34 -3 7 C-2.01 4.69 -1.02 2.38 0 0 Z " fill="#1087D3" transform="translate(84,121)"/>
<path d="M0 0 C0.79921875 0.19464844 1.5984375 0.38929687 2.421875 0.58984375 C3.32679688 0.82380859 3.32679688 0.82380859 4.25 1.0625 C4.25 1.3925 4.25 1.7225 4.25 2.0625 C-0.04 2.0625 -4.33 2.0625 -8.75 2.0625 C-8.75 1.4025 -8.75 0.7425 -8.75 0.0625 C-5.47814447 -1.01060858 -3.32052408 -0.83013102 0 0 Z " fill="#1780BF" transform="translate(178.75,115.9375)"/>
<path d="M0 0 C1.14926266 0.95421808 2.29430541 1.91352045 3.4375 2.875 C4.07558594 3.40867187 4.71367188 3.94234375 5.37109375 4.4921875 C7 6 7 6 8 8 C7.401875 7.690625 6.80375 7.38125 6.1875 7.0625 C3.91043228 5.89790296 3.91043228 5.89790296 1 5 C0.67 3.35 0.34 1.7 0 0 Z " fill="#CFF1FA" transform="translate(80,84)"/>
<path d="M0 0 C0.66 0 1.32 0 2 0 C2.66 1.98 3.32 3.96 4 6 C2.02 5.34 0.04 4.68 -2 4 C-1.34 2.68 -0.68 1.36 0 0 Z " fill="#0E87D9" transform="translate(20,76)"/>
<path d="M0 0 C0.66 0 1.32 0 2 0 C2 0.66 2 1.32 2 2 C2.66 2 3.32 2 4 2 C4 2.66 4 3.32 4 4 C0.37 3.67 -3.26 3.34 -7 3 C-7 2.67 -7 2.34 -7 2 C-3.535 1.505 -3.535 1.505 0 1 C0 0.67 0 0.34 0 0 Z " fill="#1289C9" transform="translate(183,121)"/>
<path d="M0 0 C1.32 0.66 2.64 1.32 4 2 C4 2.66 4 3.32 4 4 C1.69 4 -0.62 4 -3 4 C-3 3.34 -3 2.68 -3 2 C-2.01 2 -1.02 2 0 2 C0 1.34 0 0.68 0 0 Z " fill="#4391B9" transform="translate(32,88)"/>
<path d="M0 0 C0.99 0.99 1.98 1.98 3 3 C2.01 3.495 2.01 3.495 1 4 C-0.13350534 6.01669827 -0.13350534 6.01669827 -1 8 C-1.04241723 5.66705225 -1.04092937 3.33297433 -1 1 C-0.67 0.67 -0.34 0.34 0 0 Z " fill="#E6FEFE" transform="translate(78,83)"/>
</svg>
