<?xml version="1.0" encoding="UTF-8"?>
<!DOCTYPE svg PUBLIC "-//W3C//DTD SVG 1.1//EN" "http://www.w3.org/Graphics/SVG/1.1/DTD/svg11.dtd">
<svg xmlns="http://www.w3.org/2000/svg" version="1.1" width="377px" height="371px" style="shape-rendering:geometricPrecision; text-rendering:geometricPrecision; image-rendering:optimizeQuality; fill-rule:evenodd; clip-rule:evenodd" xmlns:xlink="http://www.w3.org/1999/xlink">
<g><path style="opacity:0.745" fill="#000000" d="M 196.5,0.5 C 201.303,0.43693 205.803,0.770263 210,1.5C 211.111,9.31844 209.611,10.1518 205.5,4C 200.064,1.0493 197.897,2.5493 199,8.5C 202.966,11.464 206.633,14.7974 210,18.5C 210.057,29.3545 204.89,32.6879 194.5,28.5C 193.914,28.7093 193.414,29.0426 193,29.5C 191.608,26.7216 191.108,23.7216 191.5,20.5C 192.5,20.5 193.5,20.5 194.5,20.5C 194.688,25.757 197.355,27.9237 202.5,27C 205.902,25.2144 206.402,22.7144 204,19.5C 201.5,17.6667 199,15.8333 196.5,14C 191.234,9.41856 191.234,4.91856 196.5,0.5 Z"/></g>
<g><path style="opacity:0.742" fill="#000000" d="M 157.5,1.5 C 161.967,1.13256 166.3,1.63256 170.5,3C 175.833,7.66667 175.833,12.3333 170.5,17C 173.5,19.3333 176.5,21.6667 179.5,24C 182.014,25.2525 184.68,25.7525 187.5,25.5C 187.5,26.5 187.5,27.5 187.5,28.5C 183.298,29.9541 179.298,29.4541 175.5,27C 171.201,22.8139 166.201,20.3139 160.5,19.5C 160.933,22.1656 161.433,24.8323 162,27.5C 163,28.8333 164,28.8333 165,27.5C 165.692,28.0253 166.192,28.6919 166.5,29.5C 162.265,30.9049 157.932,31.9049 153.5,32.5C 152.614,31.675 152.281,30.675 152.5,29.5C 153.5,29.5 154.5,29.5 155.5,29.5C 155.328,21.4551 154.661,13.4551 153.5,5.5C 152.022,5.76202 150.689,5.42869 149.5,4.5C 152.092,3.08272 154.759,2.08272 157.5,1.5 Z M 158.5,5.5 C 161.595,4.03428 164.595,4.36762 167.5,6.5C 169.957,12.9207 167.79,16.5874 161,17.5C 160.161,13.3628 159.327,9.36279 158.5,5.5 Z"/></g>
<g><path style="opacity:0.749" fill="#000000" d="M 221.5,3.5 C 225.806,3.49197 229.806,4.49197 233.5,6.5C 232.029,7.41669 230.529,8.41669 229,9.5C 227.562,16.1917 226.062,22.8583 224.5,29.5C 225.737,30.2807 226.737,31.2807 227.5,32.5C 226.833,32.8333 226.167,33.1667 225.5,33.5C 222.18,32.7026 218.846,32.0359 215.5,31.5C 215.281,30.325 215.614,29.325 216.5,28.5C 218.784,29.416 219.951,28.416 220,25.5C 221.103,19.8183 222.27,14.1516 223.5,8.5C 223.014,6.69579 222.347,5.02912 221.5,3.5 Z"/></g>
<g><path style="opacity:0.711" fill="#000000" d="M 134.5,7.5 C 138.241,7.58671 140.241,9.58671 140.5,13.5C 140,13.8333 139.5,14.1667 139,14.5C 137.864,13.2173 136.531,12.2173 135,11.5C 132.016,12.1196 129.182,13.1196 126.5,14.5C 127.306,17.4456 128.639,20.1123 130.5,22.5C 132.541,21.7643 134.541,20.9309 136.5,20C 136.446,18.6491 136.946,17.4824 138,16.5C 140.057,18.9787 141.557,21.8121 142.5,25C 141.975,25.6924 141.308,26.1924 140.5,26.5C 139.719,25.2634 138.719,24.2634 137.5,23.5C 135.111,24.1805 132.778,25.0138 130.5,26C 131.525,28.0715 132.358,30.2381 133,32.5C 133.519,33.5156 134.353,34.1822 135.5,34.5C 137.697,33.9344 139.864,33.2677 142,32.5C 143.836,30.5851 145.002,28.2517 145.5,25.5C 146.949,27.6106 147.949,29.9439 148.5,32.5C 141.464,36.3525 133.964,39.3525 126,41.5C 125.5,41.1667 125,40.8333 124.5,40.5C 126.097,39.2092 127.43,37.7092 128.5,36C 126.118,29.0147 123.451,22.1814 120.5,15.5C 119.264,16.2458 117.93,16.5792 116.5,16.5C 116.5,15.5 116.5,14.5 116.5,13.5C 122.784,12.072 128.784,10.072 134.5,7.5 Z"/></g>
<g><path style="opacity:0.723" fill="#000000" d="M 243.5,7.5 C 251.468,11.4895 259.801,14.4895 268.5,16.5C 268.494,19.8502 267.494,22.8502 265.5,25.5C 265.199,19.8436 262.199,17.177 256.5,17.5C 254.327,24.0223 251.993,30.5223 249.5,37C 250.57,38.7092 251.903,40.2092 253.5,41.5C 253,41.8333 252.5,42.1667 252,42.5C 247.793,40.9312 243.627,39.2645 239.5,37.5C 238.167,36.5 238.167,35.5 239.5,34.5C 240.748,35.0402 241.915,35.7069 243,36.5C 246.357,29.4336 249.524,22.267 252.5,15C 250.278,14.3054 248.111,13.4721 246,12.5C 244.374,13.2887 242.874,14.2887 241.5,15.5C 240.883,12.6668 241.55,10.0002 243.5,7.5 Z"/></g>
<g><path style="opacity:0.73" fill="#000000" d="M 107.5,17.5 C 108.497,17.4701 109.164,17.9701 109.5,19C 108.833,20.3333 108.167,21.6667 107.5,23C 109.019,30.9627 110.352,38.9627 111.5,47C 111.691,48.9729 111.024,50.4729 109.5,51.5C 102.308,45.8076 94.9748,40.3076 87.5,35C 86.1011,34.4054 84.7678,34.5721 83.5,35.5C 82.269,34.3493 82.269,33.1827 83.5,32C 86.9939,30.4205 90.3272,28.5872 93.5,26.5C 93.8333,27 94.1667,27.5 94.5,28C 93.7282,29.221 92.7282,30.221 91.5,31C 96.0603,35.1944 100.894,39.0277 106,42.5C 106.184,35.9407 105.184,29.6074 103,23.5C 101.815,25.5593 100.648,25.726 99.5,24C 102.022,21.5834 104.688,19.4167 107.5,17.5 Z"/></g>
<g><path style="opacity:0.729" fill="#000000" d="M 275.5,22.5 C 280.12,23.9423 284.12,26.4423 287.5,30C 286.352,31.726 285.185,31.5593 284,29.5C 283.333,33.8333 283.333,38.1667 284,42.5C 287.453,40.5242 290.953,38.6909 294.5,37C 292.441,35.8145 292.274,34.6479 294,33.5C 297.117,35.307 299.95,37.4737 302.5,40C 302.167,40.5 301.833,41 301.5,41.5C 299.568,40.4798 297.568,40.3131 295.5,41C 291.158,43.1711 286.824,45.3378 282.5,47.5C 281.167,49.5 279.833,51.5 278.5,53.5C 280.333,54.9684 280.666,56.6351 279.5,58.5C 275.618,56.0659 271.952,53.3993 268.5,50.5C 270.413,49.9488 272.413,49.7821 274.5,50C 275.211,48.7453 276.044,47.5786 277,46.5C 277.537,41.8372 278.037,37.1706 278.5,32.5C 278.626,28.7723 277.626,25.439 275.5,22.5 Z"/></g>
<g><path style="opacity:0.756" fill="#000000" d="M 74.5,38.5 C 75.4972,38.4701 76.1639,38.9701 76.5,40C 75.6705,41.4651 75.5038,42.9651 76,44.5C 80.6746,49.866 85.3413,55.1993 90,60.5C 91.3004,59.548 92.467,59.548 93.5,60.5C 91.1051,63.8615 88.1051,66.5281 84.5,68.5C 83.9488,66.5868 83.7821,64.5868 84,62.5C 79.3333,57.1667 74.6667,51.8333 70,46.5C 68.8173,47.731 67.6507,47.731 66.5,46.5C 69.4939,44.1727 72.1606,41.5061 74.5,38.5 Z"/></g>
<g><path style="opacity:0.738" fill="#000000" d="M 58.5,52.5 C 59.3764,52.3691 60.0431,52.7025 60.5,53.5C 59.5721,54.7678 59.4054,56.1011 60,57.5C 65.5417,62.7105 71.3751,67.5438 77.5,72C 78.3366,73.0113 78.67,74.1779 78.5,75.5C 68.1377,75.9602 57.8044,76.7935 47.5,78C 51.8333,81.6667 56.1667,85.3333 60.5,89C 62.3914,89.3087 63.7248,88.4753 64.5,86.5C 64.8333,87 65.1667,87.5 65.5,88C 63.7601,91.5777 61.4267,94.7443 58.5,97.5C 58.2659,95.3391 57.9325,93.1724 57.5,91C 51.7095,86.8782 46.2095,82.3782 41,77.5C 40.0347,79.2603 38.868,79.5937 37.5,78.5C 38.2531,76.2466 39.5864,74.4133 41.5,73C 50.8183,71.9173 60.1516,70.9173 69.5,70C 65.2407,66.6189 61.0741,63.1189 57,59.5C 55.6861,60.3128 54.5195,61.3128 53.5,62.5C 52.6919,62.1924 52.0253,61.6924 51.5,61C 53.7221,58.0438 56.0554,55.2105 58.5,52.5 Z"/></g>
<g><path style="opacity:0.754" fill="#000000" d="M 317.5,65.5 C 329.624,64.9018 336.958,70.5685 339.5,82.5C 337.035,94.9003 329.702,99.4003 317.5,96C 306.397,88.8064 304.397,79.8064 311.5,69C 313.432,67.5415 315.432,66.3748 317.5,65.5 Z M 321.5,69.5 C 329.565,68.3993 333.898,71.8993 334.5,80C 332.432,90.0272 326.432,94.0272 316.5,92C 311.536,87.7275 310.37,82.5608 313,76.5C 315.441,73.5464 318.275,71.2131 321.5,69.5 Z"/></g>
<g><path style="opacity:0.741" fill="#000000" d="M 30.5,86.5 C 31.5,86.5 32.5,86.5 33.5,86.5C 32.9478,88.3307 32.9478,89.9974 33.5,91.5C 39.2495,94.4565 44.7495,97.7898 50,101.5C 53.6584,110.705 51.1584,117.872 42.5,123C 39.8333,123.667 37.1667,123.667 34.5,123C 30.061,120.697 25.561,118.53 21,116.5C 19.7147,116.95 18.548,117.617 17.5,118.5C 17.1667,118 16.8333,117.5 16.5,117C 17.8763,113.073 19.8763,109.573 22.5,106.5C 23.731,107.651 23.731,108.817 22.5,110C 27.614,113.89 33.2807,116.724 39.5,118.5C 44.7928,117.036 47.7928,113.536 48.5,108C 48.0656,105.684 47.0656,103.684 45.5,102C 40.9483,99.5571 36.2816,97.3904 31.5,95.5C 29.9121,96.0096 28.7455,97.0096 28,98.5C 27.6667,98.1667 27.3333,97.8333 27,97.5C 28.1125,93.9104 29.2792,90.2438 30.5,86.5 Z"/></g>
<g><path style="opacity:0.73" fill="#000000" d="M 347.5,95.5 C 348.675,95.281 349.675,95.6143 350.5,96.5C 353.341,102.496 355.841,108.496 358,114.5C 352.563,118.877 351.063,118.044 353.5,112C 353.007,109.181 351.84,106.681 350,104.5C 347.602,105.856 345.102,107.023 342.5,108C 344.068,110.304 345.235,112.804 346,115.5C 347.008,115.982 348.175,116.148 349.5,116C 350.833,116.667 350.833,117.333 349.5,118C 347.167,119.167 344.833,120.333 342.5,121.5C 341.246,119.741 341.579,118.241 343.5,117C 342.126,114.417 340.626,111.917 339,109.5C 336.579,110.961 334.079,112.294 331.5,113.5C 330.833,115.167 330.167,116.833 329.5,118.5C 327.374,115.081 325.374,111.581 323.5,108C 325.464,106.206 326.964,106.706 328,109.5C 334.301,105.933 340.801,102.766 347.5,100C 348.413,98.5861 348.413,97.0861 347.5,95.5 Z"/></g>
<g><path style="opacity:1" fill="#d3d3d5" d="M 290.5,252.5 C 304.119,230.472 310.952,206.472 311,180.5C 310.292,181.381 309.458,182.047 308.5,182.5C 308.44,181.957 308.107,181.624 307.5,181.5C 306.5,182.167 305.5,182.833 304.5,183.5C 303.796,161.681 297.962,141.348 287,122.5C 285.804,120.714 284.304,119.381 282.5,118.5C 283.5,118.5 284.5,118.5 285.5,118.5C 284.941,109.049 280.941,101.383 273.5,95.5C 271.971,96.7629 270.305,97.7629 268.5,98.5C 266.724,98.2062 264.724,98.0395 262.5,98C 261.084,95.7355 259.084,94.5688 256.5,94.5C 256.918,93.7784 257.584,93.2784 258.5,93C 255.948,90.1471 253.115,87.6471 250,85.5C 248.991,83.9751 248.491,82.3084 248.5,80.5C 252.169,80.3318 255.502,81.3318 258.5,83.5C 259.696,83.1543 259.696,82.6543 258.5,82C 239.643,69.6033 218.976,62.6033 196.5,61C 197.737,61.2321 198.737,61.7321 199.5,62.5C 198.508,62.3284 197.842,62.6618 197.5,63.5C 194.406,62.7866 191.406,61.7866 188.5,60.5C 183.156,60.334 177.823,60.5006 172.5,61C 170.618,61.1981 168.952,61.6981 167.5,62.5C 159.809,63.2558 152.475,65.2558 145.5,68.5C 102.379,86.0331 76.2124,117.7 67,163.5C 66.3333,169.833 66.3333,176.167 67,182.5C 67.6708,183.252 68.5041,183.586 69.5,183.5C 70.8333,184.5 72.1667,185.5 73.5,186.5C 72.5,186.5 71.5,186.5 70.5,186.5C 72.0037,197.856 73.837,209.19 76,220.5C 78.8351,225.988 81.1684,231.655 83,237.5C 86.2479,241.073 89.0812,244.907 91.5,249C 90.944,249.383 90.6107,249.883 90.5,250.5C 88.7041,249.207 87.0375,247.707 85.5,246C 84.6683,245.312 84.0016,245.479 83.5,246.5C 85.9522,249.606 87.9522,252.939 89.5,256.5C 75.4015,238.737 67.2349,218.403 65,195.5C 62.474,136.034 87.974,93.5337 141.5,68C 196.758,48.9822 244.258,60.8155 284,103.5C 317.054,147.379 321.387,194.046 297,243.5C 295.301,246.921 293.135,249.921 290.5,252.5 Z"/></g>
<g><path style="opacity:1" fill="#e9e9ea" d="M 282.5,118.5 C 284.304,119.381 285.804,120.714 287,122.5C 297.962,141.348 303.796,161.681 304.5,183.5C 305.5,182.833 306.5,182.167 307.5,181.5C 308.107,181.624 308.44,181.957 308.5,182.5C 307.5,182.833 306.833,183.5 306.5,184.5C 302.167,185.833 297.833,187.167 293.5,188.5C 287.285,190.343 280.951,191.677 274.5,192.5C 281.587,186.161 283.254,178.494 279.5,169.5C 283.431,168.737 285.931,166.403 287,162.5C 288.651,152.646 285.485,144.813 277.5,139C 275.005,138.843 272.672,138.676 270.5,138.5C 267.221,129.276 262.888,120.609 257.5,112.5C 262.145,110.837 266.812,109.17 271.5,107.5C 273.4,109.619 275.066,111.953 276.5,114.5C 278.264,116.278 280.264,117.611 282.5,118.5 Z"/></g>
<g><path style="opacity:1" fill="#d9b522" d="M 161.5,65.5 C 160.797,66.4687 159.463,67.4687 157.5,68.5C 141.255,75.5748 127.422,85.9082 116,99.5C 118.428,92.3612 122.595,86.1946 128.5,81C 111.475,91.3583 97.6415,105.192 87,122.5C 75.7741,141.338 69.9408,161.671 69.5,183.5C 68.5041,183.586 67.6708,183.252 67,182.5C 66.3333,176.167 66.3333,169.833 67,163.5C 76.2124,117.7 102.379,86.0331 145.5,68.5C 142.55,70.1153 139.884,72.1153 137.5,74.5C 145.202,70.7105 153.202,67.7105 161.5,65.5 Z"/></g>
<g><path style="opacity:1" fill="#060503" d="M 187.5,67.5 C 187.5,79.8333 187.5,92.1667 187.5,104.5C 186.512,124.758 186.179,145.091 186.5,165.5C 177.164,156.329 168.33,146.662 160,136.5C 158.087,144.371 156.753,152.371 156,160.5C 155.202,172.824 154.702,185.157 154.5,197.5C 154.167,197.5 153.833,197.5 153.5,197.5C 144.119,187.075 135.452,176.075 127.5,164.5C 125.75,174.746 124.75,185.08 124.5,195.5C 117.183,194.669 109.849,194.002 102.5,193.5C 101.609,192.89 100.609,192.557 99.5,192.5C 100.233,172.003 104.233,152.169 111.5,133C 111.836,131.97 112.503,131.47 113.5,131.5C 115.966,142.734 120.466,153.067 127,162.5C 129.513,151.447 132.18,140.447 135,129.5C 137.447,121.939 140.447,114.606 144,107.5C 147.703,117.242 152.703,126.242 159,134.5C 162.17,112.508 168.503,91.5076 178,71.5C 180.042,68.0595 182.542,65.0595 185.5,62.5C 186.117,62.3893 186.617,62.056 187,61.5C 187.495,63.4727 187.662,65.4727 187.5,67.5 Z"/></g>
<g><path style="opacity:1" fill="#f7f4f3" d="M 199.5,62.5 C 207.18,63.8934 214.513,66.3934 221.5,70C 223.833,71.2426 224.5,72.9093 223.5,75C 231.432,80.928 238.765,87.5947 245.5,95C 249.17,95.2792 252.837,95.1125 256.5,94.5C 259.084,94.5688 261.084,95.7355 262.5,98C 264.724,98.0395 266.724,98.2062 268.5,98.5C 261.293,100.97 253.959,103.137 246.5,105C 263.305,131.714 271.972,160.88 272.5,192.5C 272.5,192.833 272.5,193.167 272.5,193.5C 271.5,193.5 270.5,193.5 269.5,193.5C 262.623,187.373 259.79,179.707 261,170.5C 253.194,172.435 247.861,169.435 245,161.5C 244.333,156.833 244.333,152.167 245,147.5C 247.22,143.308 250.72,141.641 255.5,142.5C 253.26,132.949 249.927,123.782 245.5,115C 238.853,115.329 232.187,115.829 225.5,116.5C 228.486,121.896 228.152,127.063 224.5,132C 218.611,135.634 213.111,135.134 208,130.5C 205.619,126.86 204.119,122.86 203.5,118.5C 196.18,121.275 190.847,119.275 187.5,112.5C 187.5,111.167 187.5,109.833 187.5,108.5C 206.574,108.566 225.574,107.399 244.5,105C 244.957,104.586 245.291,104.086 245.5,103.5C 234.517,84.0267 218.517,70.6933 197.5,63.5C 197.842,62.6618 198.508,62.3284 199.5,62.5 Z"/></g>
<g><path style="opacity:1" fill="#d53539" d="M 282.5,118.5 C 280.264,117.611 278.264,116.278 276.5,114.5C 275.066,111.953 273.4,109.619 271.5,107.5C 266.812,109.17 262.145,110.837 257.5,112.5C 262.888,120.609 267.221,129.276 270.5,138.5C 272.672,138.676 275.005,138.843 277.5,139C 285.485,144.813 288.651,152.646 287,162.5C 285.931,166.403 283.431,168.737 279.5,169.5C 283.254,178.494 281.587,186.161 274.5,192.5C 273.833,192.5 273.167,192.5 272.5,192.5C 271.972,160.88 263.305,131.714 246.5,105C 253.959,103.137 261.293,100.97 268.5,98.5C 270.305,97.7629 271.971,96.7629 273.5,95.5C 280.941,101.383 284.941,109.049 285.5,118.5C 284.5,118.5 283.5,118.5 282.5,118.5 Z"/></g>
<g><path style="opacity:1" fill="#f3ce1f" d="M 185.5,62.5 C 182.542,65.0595 180.042,68.0595 178,71.5C 168.503,91.5076 162.17,112.508 159,134.5C 152.703,126.242 147.703,117.242 144,107.5C 140.447,114.606 137.447,121.939 135,129.5C 132.18,140.447 129.513,151.447 127,162.5C 120.466,153.067 115.966,142.734 113.5,131.5C 113.5,130.5 113.5,129.5 113.5,128.5C 120.717,111.784 130.884,97.1174 144,84.5C 142.016,91.7321 142.016,99.0654 144,106.5C 150.512,92.6539 159.345,80.4872 170.5,70C 174.36,67.2388 178.36,64.7388 182.5,62.5C 183.652,61.375 184.652,61.375 185.5,62.5 Z"/></g>
<g><path style="opacity:1" fill="#d23438" d="M 188.5,61.5 C 188.5,61.1667 188.5,60.8333 188.5,60.5C 191.406,61.7866 194.406,62.7866 197.5,63.5C 218.517,70.6933 234.517,84.0267 245.5,103.5C 245.291,104.086 244.957,104.586 244.5,105C 225.574,107.399 206.574,108.566 187.5,108.5C 187.5,109.833 187.5,111.167 187.5,112.5C 187.83,130.674 187.497,148.674 186.5,166.5C 186.5,166.167 186.5,165.833 186.5,165.5C 186.179,145.091 186.512,124.758 187.5,104.5C 190.045,99.094 194.378,97.094 200.5,98.5C 198.064,88.0958 201.731,84.5958 211.5,88C 215.762,90.691 217.762,94.5243 217.5,99.5C 223.59,99.6243 229.59,98.9577 235.5,97.5C 229.911,89.6558 223.411,82.6558 216,76.5C 206.759,79.4657 200.259,76.299 196.5,67C 193.631,65.4037 190.964,63.5703 188.5,61.5 Z"/></g>
<g><path style="opacity:1" fill="#0a0906" d="M 180.5,61.5 C 181.492,61.3284 182.158,61.6618 182.5,62.5C 178.36,64.7388 174.36,67.2388 170.5,70C 159.345,80.4872 150.512,92.6539 144,106.5C 142.016,99.0654 142.016,91.7321 144,84.5C 130.884,97.1174 120.717,111.784 113.5,128.5C 112.126,124.412 111.459,120.079 111.5,115.5C 111.669,110.593 112.502,105.927 114,101.5C 92.9149,126.575 81.7483,155.575 80.5,188.5C 78.1667,187.833 75.8333,187.167 73.5,186.5C 72.1667,185.5 70.8333,184.5 69.5,183.5C 69.9408,161.671 75.7741,141.338 87,122.5C 97.6415,105.192 111.475,91.3583 128.5,81C 122.595,86.1946 118.428,92.3612 116,99.5C 127.422,85.9082 141.255,75.5748 157.5,68.5C 157.5,68.8333 157.5,69.1667 157.5,69.5C 152.279,72.2067 148.779,76.2067 147,81.5C 151.91,76.6343 157.41,72.6343 163.5,69.5C 169.08,66.5422 174.746,63.8756 180.5,61.5 Z"/></g>
<g><path style="opacity:1" fill="#c63033" d="M 256.5,94.5 C 252.837,95.1125 249.17,95.2792 245.5,95C 238.765,87.5947 231.432,80.928 223.5,75C 224.5,72.9093 223.833,71.2426 221.5,70C 214.513,66.3934 207.18,63.8934 199.5,62.5C 198.737,61.7321 197.737,61.2321 196.5,61C 218.976,62.6033 239.643,69.6033 258.5,82C 259.696,82.6543 259.696,83.1543 258.5,83.5C 255.502,81.3318 252.169,80.3318 248.5,80.5C 248.491,82.3084 248.991,83.9751 250,85.5C 253.115,87.6471 255.948,90.1471 258.5,93C 257.584,93.2784 256.918,93.7784 256.5,94.5 Z"/></g>
<g><path style="opacity:1" fill="#867537" d="M 137.5,74.5 C 136.426,75.8846 135.093,77.0513 133.5,78C 132.833,78.6667 132.167,78.6667 131.5,78C 133.063,76.0527 135.063,74.886 137.5,74.5 Z"/></g>
<g><path style="opacity:1" fill="#edebeb" d="M 188.5,61.5 C 190.964,63.5703 193.631,65.4037 196.5,67C 200.259,76.299 206.759,79.4657 216,76.5C 223.411,82.6558 229.911,89.6558 235.5,97.5C 229.59,98.9577 223.59,99.6243 217.5,99.5C 217.762,94.5243 215.762,90.691 211.5,88C 201.731,84.5958 198.064,88.0958 200.5,98.5C 194.378,97.094 190.045,99.094 187.5,104.5C 187.5,92.1667 187.5,79.8333 187.5,67.5C 188.461,65.7354 188.795,63.7354 188.5,61.5 Z"/></g>
<g><path style="opacity:1" fill="#e8c425" d="M 163.5,69.5 C 157.41,72.6343 151.91,76.6343 147,81.5C 148.779,76.2067 152.279,72.2067 157.5,69.5C 158.915,68.7106 160.415,68.0439 162,67.5C 163.03,67.8361 163.53,68.5028 163.5,69.5 Z"/></g>
<g><path style="opacity:1" fill="#ba9d23" d="M 180.5,61.5 C 174.746,63.8756 169.08,66.5422 163.5,69.5C 163.53,68.5028 163.03,67.8361 162,67.5C 160.415,68.0439 158.915,68.7106 157.5,69.5C 157.5,69.1667 157.5,68.8333 157.5,68.5C 159.463,67.4687 160.797,66.4687 161.5,65.5C 163.5,64.5 165.5,63.5 167.5,62.5C 171.869,62.5328 176.202,62.1995 180.5,61.5 Z"/></g>
<g><path style="opacity:1" fill="#1a1813" d="M 167.5,62.5 C 165.5,63.5 163.5,64.5 161.5,65.5C 153.202,67.7105 145.202,70.7105 137.5,74.5C 139.884,72.1153 142.55,70.1153 145.5,68.5C 152.475,65.2558 159.809,63.2558 167.5,62.5 Z"/></g>
<g><path style="opacity:1" fill="#534d39" d="M 188.5,60.5 C 188.5,60.8333 188.5,61.1667 188.5,61.5C 188.795,63.7354 188.461,65.7354 187.5,67.5C 187.662,65.4727 187.495,63.4727 187,61.5C 186.617,62.056 186.117,62.3893 185.5,62.5C 184.652,61.375 183.652,61.375 182.5,62.5C 182.158,61.6618 181.492,61.3284 180.5,61.5C 176.202,62.1995 171.869,62.5328 167.5,62.5C 168.952,61.6981 170.618,61.1981 172.5,61C 177.823,60.5006 183.156,60.334 188.5,60.5 Z"/></g>
<g><path style="opacity:1" fill="#eec81f" d="M 113.5,128.5 C 113.5,129.5 113.5,130.5 113.5,131.5C 112.503,131.47 111.836,131.97 111.5,133C 104.233,152.169 100.233,172.003 99.5,192.5C 98.5,192.5 97.5,192.5 96.5,192.5C 91.2568,191.174 85.9234,189.841 80.5,188.5C 81.7483,155.575 92.9149,126.575 114,101.5C 112.502,105.927 111.669,110.593 111.5,115.5C 111.459,120.079 112.126,124.412 113.5,128.5 Z"/></g>
<g><path style="opacity:1" fill="#e1383e" d="M 187.5,112.5 C 190.847,119.275 196.18,121.275 203.5,118.5C 204.119,122.86 205.619,126.86 208,130.5C 213.111,135.134 218.611,135.634 224.5,132C 228.152,127.063 228.486,121.896 225.5,116.5C 232.187,115.829 238.853,115.329 245.5,115C 249.927,123.782 253.26,132.949 255.5,142.5C 250.72,141.641 247.22,143.308 245,147.5C 244.333,152.167 244.333,156.833 245,161.5C 247.861,169.435 253.194,172.435 261,170.5C 259.79,179.707 262.623,187.373 269.5,193.5C 261.846,194.287 254.179,194.953 246.5,195.5C 237.004,196.112 227.67,197.112 218.5,198.5C 218.167,198.5 217.833,198.5 217.5,198.5C 207.167,198.5 196.833,198.5 186.5,198.5C 186.5,187.833 186.5,177.167 186.5,166.5C 187.497,148.674 187.83,130.674 187.5,112.5 Z"/></g>
<g><path style="opacity:1" fill="#fcd41e" d="M 186.5,165.5 C 186.5,165.833 186.5,166.167 186.5,166.5C 186.5,177.167 186.5,187.833 186.5,198.5C 175.806,198.709 165.14,198.375 154.5,197.5C 154.702,185.157 155.202,172.824 156,160.5C 156.753,152.371 158.087,144.371 160,136.5C 168.33,146.662 177.164,156.329 186.5,165.5 Z"/></g>
<g><path style="opacity:1" fill="#f8d221" d="M 153.5,197.5 C 143.732,197.538 134.065,196.871 124.5,195.5C 124.75,185.08 125.75,174.746 127.5,164.5C 135.452,176.075 144.119,187.075 153.5,197.5 Z"/></g>
<g><path style="opacity:0.694" fill="#000000" d="M 6.5,172.5 C 7.5,172.5 8.5,172.5 9.5,172.5C 9.5,180.833 9.5,189.167 9.5,197.5C 10.9778,197.238 12.3112,197.571 13.5,198.5C 9.83333,199.833 6.16667,199.833 2.5,198.5C 3.32496,197.614 4.32496,197.281 5.5,197.5C 5.66625,190.825 5.49958,184.158 5,177.5C 3.82932,179.616 2.32932,180.282 0.5,179.5C 2.66163,177.14 4.66163,174.807 6.5,172.5 Z"/></g>
<g><path style="opacity:0.674" fill="#000000" d="M 23.5,172.5 C 31.167,171.024 35.0003,174.024 35,181.5C 33.8333,182.667 32.6667,183.833 31.5,185C 38.2971,190.38 37.9638,195.38 30.5,200C 24.4026,201.284 20.4026,198.951 18.5,193C 19.3758,190.121 21.0424,187.787 23.5,186C 18.2215,181.503 18.2215,177.003 23.5,172.5 Z M 24.5,174.5 C 31.4863,174.331 33.153,177.164 29.5,183C 23.9397,182.587 22.2731,179.753 24.5,174.5 Z M 25.5,187.5 C 30.1634,188.315 32.3301,190.982 32,195.5C 28.5275,199.717 25.5275,199.384 23,194.5C 22.6826,191.793 23.5159,189.46 25.5,187.5 Z"/></g>
<g><path style="opacity:0.686" fill="#000000" d="M 351.5,174.5 C 353.256,175.552 353.923,177.219 353.5,179.5C 350.102,179.18 346.768,179.513 343.5,180.5C 342.515,182.098 342.349,183.765 343,185.5C 350.063,183.369 354.23,186.036 355.5,193.5C 353.595,201.459 348.595,204.292 340.5,202C 338.606,200.921 338.273,199.587 339.5,198C 342.34,199.132 345.34,199.798 348.5,200C 352.305,196.284 352.305,192.618 348.5,189C 346.101,188.289 343.768,188.456 341.5,189.5C 340.507,184.88 340.173,180.214 340.5,175.5C 344.371,175.815 348.038,175.482 351.5,174.5 Z"/></g>
<g><path style="opacity:0.655" fill="#000000" d="M 376.5,190.5 C 376.5,192.833 376.5,195.167 376.5,197.5C 372.079,203.25 366.913,203.917 361,199.5C 356.603,187.291 360.603,178.957 373,174.5C 373.5,174.833 374,175.167 374.5,175.5C 370.318,177.85 366.985,181.017 364.5,185C 364.667,185.5 364.833,186 365,186.5C 369.994,184.584 373.828,185.917 376.5,190.5 Z M 367.5,187.5 C 370.766,188.537 372.433,190.87 372.5,194.5C 372.444,200.074 369.944,201.741 365,199.5C 363.517,196.298 363.183,192.964 364,189.5C 365.302,188.915 366.469,188.249 367.5,187.5 Z"/></g>
<g><path style="opacity:1" fill="#131110" d="M 290.5,252.5 C 289.5,253.167 288.5,253.833 287.5,254.5C 300.679,233.125 307.012,209.792 306.5,184.5C 306.833,183.5 307.5,182.833 308.5,182.5C 309.458,182.047 310.292,181.381 311,180.5C 310.952,206.472 304.119,230.472 290.5,252.5 Z"/></g>
<g><path style="opacity:1" fill="#e1e1e2" d="M 73.5,186.5 C 75.8333,187.167 78.1667,187.833 80.5,188.5C 85.9234,189.841 91.2568,191.174 96.5,192.5C 94.525,193.646 93.025,195.313 92,197.5C 91.4835,203.218 91.4835,208.885 92,214.5C 90,213.167 88,213.167 86,214.5C 83.7794,224.842 86.6128,233.675 94.5,241C 96.433,241.251 98.2663,241.751 100,242.5C 102.779,250.724 106.612,258.391 111.5,265.5C 107.441,265.921 103.441,265.087 99.5,263C 96.6131,258.716 93.6131,254.549 90.5,250.5C 90.6107,249.883 90.944,249.383 91.5,249C 89.0812,244.907 86.2479,241.073 83,237.5C 81.1684,231.655 78.8351,225.988 76,220.5C 73.837,209.19 72.0037,197.856 70.5,186.5C 71.5,186.5 72.5,186.5 73.5,186.5 Z"/></g>
<g><path style="opacity:1" fill="#ddb91e" d="M 306.5,184.5 C 307.012,209.792 300.679,233.125 287.5,254.5C 283.507,259.495 279.507,264.495 275.5,269.5C 271.388,273.953 266.722,277.62 261.5,280.5C 265.692,272.796 270.525,265.462 276,258.5C 287.989,236.724 293.823,213.391 293.5,188.5C 297.833,187.167 302.167,185.833 306.5,184.5 Z"/></g>
<g><path style="opacity:1" fill="#de363d" d="M 102.5,193.5 C 109.849,194.002 117.183,194.669 124.5,195.5C 134.065,196.871 143.732,197.538 153.5,197.5C 153.833,197.5 154.167,197.5 154.5,197.5C 165.14,198.375 175.806,198.709 186.5,198.5C 186.5,209.167 186.5,219.833 186.5,230.5C 186.5,245.833 186.5,261.167 186.5,276.5C 181.925,271.422 176.258,269.755 169.5,271.5C 166.484,260.152 159.151,255.652 147.5,258C 142.97,261.319 142.304,265.319 145.5,270C 138.447,270.435 131.447,269.935 124.5,268.5C 119.825,260.627 116.658,252.294 115,243.5C 119.658,246.564 123.325,245.564 126,240.5C 127.66,227.467 122.16,219.467 109.5,216.5C 111.802,207.406 109.468,199.74 102.5,193.5 Z"/></g>
<g><path style="opacity:1" fill="#0b0605" d="M 246.5,195.5 C 246.666,204.173 246.5,212.84 246,221.5C 245.798,223.256 245.298,224.922 244.5,226.5C 236.512,217.179 228.179,208.179 219.5,199.5C 219.5,198.833 219.167,198.5 218.5,198.5C 227.67,197.112 237.004,196.112 246.5,195.5 Z"/></g>
<g><path style="opacity:1" fill="#050302" d="M 186.5,198.5 C 196.833,198.5 207.167,198.5 217.5,198.5C 217.5,206.833 217.5,215.167 217.5,223.5C 217.158,234.604 215.992,245.604 214,256.5C 205.605,247.937 197.105,239.604 188.5,231.5C 188.158,230.662 187.492,230.328 186.5,230.5C 186.5,219.833 186.5,209.167 186.5,198.5 Z"/></g>
<g><path style="opacity:1" fill="#937d1c" d="M 217.5,198.5 C 217.833,198.5 218.167,198.5 218.5,198.5C 219.167,198.5 219.5,198.833 219.5,199.5C 218.833,207.5 218.167,215.5 217.5,223.5C 217.5,215.167 217.5,206.833 217.5,198.5 Z"/></g>
<g><path style="opacity:1" fill="#f8d21e" d="M 269.5,193.5 C 270.5,193.5 271.5,193.5 272.5,193.5C 273.438,213.946 270.104,233.613 262.5,252.5C 258.235,243.631 252.735,235.631 246,228.5C 241.976,244.257 237.476,259.924 232.5,275.5C 231.833,276.833 231.167,276.833 230.5,275.5C 226.268,268.763 221.102,262.763 215,257.5C 213.397,264.104 211.897,270.771 210.5,277.5C 209.71,276.391 209.21,275.058 209,273.5C 202.622,275.056 196.122,276.056 189.5,276.5C 189.59,279.152 188.924,281.485 187.5,283.5C 187.5,283.167 187.5,282.833 187.5,282.5C 187.5,280.833 187.5,279.167 187.5,277.5C 187.17,261.991 187.504,246.658 188.5,231.5C 197.105,239.604 205.605,247.937 214,256.5C 215.992,245.604 217.158,234.604 217.5,223.5C 218.167,215.5 218.833,207.5 219.5,199.5C 228.179,208.179 236.512,217.179 244.5,226.5C 245.298,224.922 245.798,223.256 246,221.5C 246.5,212.84 246.666,204.173 246.5,195.5C 254.179,194.953 261.846,194.287 269.5,193.5 Z"/></g>
<g><path style="opacity:1" fill="#ce3236" d="M 96.5,192.5 C 97.5,192.5 98.5,192.5 99.5,192.5C 98.3542,222.934 106.354,250.6 123.5,275.5C 116.227,274.765 109.227,272.932 102.5,270C 97.9357,265.605 93.6023,261.105 89.5,256.5C 87.9522,252.939 85.9522,249.606 83.5,246.5C 84.0016,245.479 84.6683,245.312 85.5,246C 87.0375,247.707 88.7041,249.207 90.5,250.5C 93.6131,254.549 96.6131,258.716 99.5,263C 103.441,265.087 107.441,265.921 111.5,265.5C 106.612,258.391 102.779,250.724 100,242.5C 98.2663,241.751 96.433,241.251 94.5,241C 86.6128,233.675 83.7794,224.842 86,214.5C 88,213.167 90,213.167 92,214.5C 91.4835,208.885 91.4835,203.218 92,197.5C 93.025,195.313 94.525,193.646 96.5,192.5 Z"/></g>
<g><path style="opacity:1" fill="#090705" d="M 293.5,188.5 C 293.823,213.391 287.989,236.724 276,258.5C 270.525,265.462 265.692,272.796 261.5,280.5C 259.37,282.127 257.37,283.96 255.5,286C 248.438,289.861 241.438,293.695 234.5,297.5C 233.833,297.5 233.167,297.5 232.5,297.5C 242.706,291.136 252.539,284.136 262,276.5C 266.49,269.281 266.656,261.947 262.5,254.5C 256.495,269.532 247.328,282.199 235,292.5C 234.667,289.167 234.333,285.833 234,282.5C 233.417,280.998 232.584,279.665 231.5,278.5C 225.701,290.635 216.701,299.301 204.5,304.5C 201.455,304.508 198.455,304.841 195.5,305.5C 198.431,303.739 200.931,301.406 203,298.5C 206.402,291.791 208.902,284.791 210.5,277.5C 211.897,270.771 213.397,264.104 215,257.5C 221.102,262.763 226.268,268.763 230.5,275.5C 231.167,276.833 231.833,276.833 232.5,275.5C 237.476,259.924 241.976,244.257 246,228.5C 252.735,235.631 258.235,243.631 262.5,252.5C 270.104,233.613 273.438,213.946 272.5,193.5C 272.5,193.167 272.5,192.833 272.5,192.5C 273.167,192.5 273.833,192.5 274.5,192.5C 280.951,191.677 287.285,190.343 293.5,188.5 Z"/></g>
<g><path style="opacity:1" fill="#eb802e" d="M 186.5,230.5 C 187.492,230.328 188.158,230.662 188.5,231.5C 187.504,246.658 187.17,261.991 187.5,277.5C 187.167,277.5 186.833,277.5 186.5,277.5C 186.5,277.167 186.5,276.833 186.5,276.5C 186.5,261.167 186.5,245.833 186.5,230.5 Z"/></g>
<g><path style="opacity:0.756" fill="#000000" d="M 51.5,254.5 C 52.4959,254.414 53.3292,254.748 54,255.5C 55.3767,257.754 56.8767,259.92 58.5,262C 53.2473,270.503 48.2473,279.17 43.5,288C 53.3483,286.698 63.1817,284.865 73,282.5C 74.9513,284.898 76.7846,287.398 78.5,290C 78.1667,290.5 77.8333,291 77.5,291.5C 75.6806,289.089 73.6806,288.922 71.5,291C 64.7702,297.07 58.1036,303.07 51.5,309C 51.9504,310.285 52.6171,311.452 53.5,312.5C 53,312.833 52.5,313.167 52,313.5C 48.6675,309.663 45.5009,305.663 42.5,301.5C 43,301.167 43.5,300.833 44,300.5C 46.354,302.84 48.854,303.007 51.5,301C 56.5,296.667 61.5,292.333 66.5,288C 56.8467,289.497 47.18,291.33 37.5,293.5C 36.914,293.291 36.414,292.957 36,292.5C 39.7741,283.454 44.2741,274.621 49.5,266C 42.2628,269.034 35.5961,273.201 29.5,278.5C 30.4847,280.098 30.6514,281.765 30,283.5C 27.0973,280.268 24.5973,276.768 22.5,273C 22.8333,272.5 23.1667,272 23.5,271.5C 24.427,273.946 26.0937,274.779 28.5,274C 36.5,268.667 44.5,263.333 52.5,258C 51.6634,256.989 51.33,255.822 51.5,254.5 Z"/></g>
<g><path style="opacity:0.761" fill="#000000" d="M 325.5,256.5 C 338.916,255.539 346.583,261.706 348.5,275C 345.451,285.268 340.451,294.435 333.5,302.5C 332.834,301.169 332.834,299.669 333.5,298C 333.215,296.11 332.215,294.777 330.5,294C 323.418,289.375 316.251,284.875 309,280.5C 307.647,281.685 306.48,283.019 305.5,284.5C 305.167,284 304.833,283.5 304.5,283C 309.032,272.046 316.032,263.212 325.5,256.5 Z M 322.5,262.5 C 336.845,261.022 344.012,267.356 344,281.5C 342.998,285.164 341.164,288.331 338.5,291C 337.092,291.315 335.759,290.982 334.5,290C 327.004,284.751 319.337,279.751 311.5,275C 314.317,270.021 317.984,265.854 322.5,262.5 Z"/></g>
<g><path style="opacity:1" fill="#89878a" d="M 290.5,252.5 C 287.026,259.096 282.359,264.762 276.5,269.5C 276.167,269.5 275.833,269.5 275.5,269.5C 279.507,264.495 283.507,259.495 287.5,254.5C 288.5,253.833 289.5,253.167 290.5,252.5 Z"/></g>
<g><path style="opacity:1" fill="#f1eeed" d="M 99.5,192.5 C 100.609,192.557 101.609,192.89 102.5,193.5C 109.468,199.74 111.802,207.406 109.5,216.5C 122.16,219.467 127.66,227.467 126,240.5C 123.325,245.564 119.658,246.564 115,243.5C 116.658,252.294 119.825,260.627 124.5,268.5C 131.447,269.935 138.447,270.435 145.5,270C 142.304,265.319 142.97,261.319 147.5,258C 159.151,255.652 166.484,260.152 169.5,271.5C 176.258,269.755 181.925,271.422 186.5,276.5C 186.5,276.833 186.5,277.167 186.5,277.5C 181.208,278.829 175.542,279.496 169.5,279.5C 154.032,279.427 138.699,278.094 123.5,275.5C 106.354,250.6 98.3542,222.934 99.5,192.5 Z"/></g>
<g><path style="opacity:1" fill="#cd3335" d="M 123.5,275.5 C 138.699,278.094 154.032,279.427 169.5,279.5C 175.542,279.496 181.208,278.829 186.5,277.5C 186.833,277.5 187.167,277.5 187.5,277.5C 187.5,279.167 187.5,280.833 187.5,282.5C 183.658,287.256 178.824,288.59 173,286.5C 174.767,292.24 172.6,294.907 166.5,294.5C 164.035,294.522 161.702,294.022 159.5,293C 156.326,290.735 153.492,288.235 151,285.5C 145.785,284.693 140.618,284.193 135.5,284C 143.353,293.593 153.353,299.593 165.5,302C 168.063,302.763 168.063,303.263 165.5,303.5C 147.775,299.645 133.775,290.312 123.5,275.5 Z"/></g>
<g><path style="opacity:1" fill="#e8c21e" d="M 210.5,277.5 C 208.902,284.791 206.402,291.791 203,298.5C 200.931,301.406 198.431,303.739 195.5,305.5C 193.167,305.5 190.833,305.5 188.5,305.5C 187.882,298.183 187.549,290.849 187.5,283.5C 188.924,281.485 189.59,279.152 189.5,276.5C 196.122,276.056 202.622,275.056 209,273.5C 209.21,275.058 209.71,276.391 210.5,277.5 Z"/></g>
<g><path style="opacity:0.75" fill="#000000" d="M 300.5,286.5 C 301.376,286.369 302.043,286.702 302.5,287.5C 300.744,289.191 300.244,291.191 301,293.5C 307.689,301.355 314.189,309.355 320.5,317.5C 319.167,317.833 317.833,318.167 316.5,318.5C 304.189,316.752 291.855,315.585 279.5,315C 284.738,320.815 289.738,326.815 294.5,333C 296.585,333.529 298.418,333.029 300,331.5C 300.5,331.833 301,332.167 301.5,332.5C 298.149,335.848 294.482,338.848 290.5,341.5C 290.167,341.167 289.833,340.833 289.5,340.5C 290.611,339.389 291.278,338.055 291.5,336.5C 286.353,328.403 280.353,320.903 273.5,314C 271.953,313.667 270.62,314.167 269.5,315.5C 269.167,315.167 268.833,314.833 268.5,314.5C 270.534,311.631 273.034,309.298 276,307.5C 287.462,309.645 298.962,310.645 310.5,310.5C 306.355,305.187 302.021,300.02 297.5,295C 295.536,294.376 293.869,294.876 292.5,296.5C 292.167,296.167 291.833,295.833 291.5,295.5C 294.215,292.118 297.215,289.118 300.5,286.5 Z"/></g>
<g><path style="opacity:1" fill="#ddb922" d="M 232.5,297.5 C 231.833,297.5 231.167,297.5 230.5,297.5C 230.953,296.542 231.619,295.708 232.5,295C 227.973,296.597 223.639,298.764 219.5,301.5C 216.145,301.69 213.145,302.69 210.5,304.5C 208.5,304.5 206.5,304.5 204.5,304.5C 216.701,299.301 225.701,290.635 231.5,278.5C 232.584,279.665 233.417,280.998 234,282.5C 234.333,285.833 234.667,289.167 235,292.5C 247.328,282.199 256.495,269.532 262.5,254.5C 266.656,261.947 266.49,269.281 262,276.5C 252.539,284.136 242.706,291.136 232.5,297.5 Z"/></g>
<g><path style="opacity:1" fill="#dbdbdc" d="M 89.5,256.5 C 93.6023,261.105 97.9357,265.605 102.5,270C 109.227,272.932 116.227,274.765 123.5,275.5C 133.775,290.312 147.775,299.645 165.5,303.5C 168.063,303.263 168.063,302.763 165.5,302C 153.353,299.593 143.353,293.593 135.5,284C 140.618,284.193 145.785,284.693 151,285.5C 153.492,288.235 156.326,290.735 159.5,293C 161.702,294.022 164.035,294.522 166.5,294.5C 172.6,294.907 174.767,292.24 173,286.5C 178.824,288.59 183.658,287.256 187.5,282.5C 187.5,282.833 187.5,283.167 187.5,283.5C 187.549,290.849 187.882,298.183 188.5,305.5C 190.833,305.5 193.167,305.5 195.5,305.5C 198.455,304.841 201.455,304.508 204.5,304.5C 206.5,304.5 208.5,304.5 210.5,304.5C 163.837,311.887 124.67,297.887 93,262.5C 91.5787,260.595 90.412,258.595 89.5,256.5 Z"/></g>
<g><path style="opacity:0.8" fill="#ccccce" d="M 275.5,269.5 C 275.833,269.5 276.167,269.5 276.5,269.5C 264.925,282.397 250.925,291.73 234.5,297.5C 241.438,293.695 248.438,289.861 255.5,286C 257.37,283.96 259.37,282.127 261.5,280.5C 266.722,277.62 271.388,273.953 275.5,269.5 Z"/></g>
<g><path style="opacity:1" fill="#1f1d19" d="M 230.5,297.5 C 226.979,299.229 223.313,300.562 219.5,301.5C 223.639,298.764 227.973,296.597 232.5,295C 231.619,295.708 230.953,296.542 230.5,297.5 Z"/></g>
<g><path style="opacity:0.75" fill="#000000" d="M 96.5,302.5 C 98.2959,303.793 99.9625,305.293 101.5,307C 98.0937,318.121 94.7603,329.288 91.5,340.5C 92.5,341.833 93.5,343.167 94.5,344.5C 94,344.833 93.5,345.167 93,345.5C 88.3871,342.72 84.2204,339.387 80.5,335.5C 80.8333,335.167 81.1667,334.833 81.5,334.5C 82.914,335.624 84.414,336.624 86,337.5C 87.5794,333.341 89.0794,329.174 90.5,325C 87.6397,322.64 84.6397,320.473 81.5,318.5C 78.2489,320.375 75.0823,322.375 72,324.5C 71.4032,326.924 72.2366,328.757 74.5,330C 74.1667,330.5 73.8333,331 73.5,331.5C 69.5181,328.848 65.8514,325.848 62.5,322.5C 64.6716,322.324 67.0049,322.157 69.5,322C 77.1667,317 84.8333,312 92.5,307C 94.3844,305.951 95.7177,304.451 96.5,302.5 Z M 93.5,310.5 C 93.1857,313.947 92.3524,317.28 91,320.5C 88.8762,319.378 87.0429,317.878 85.5,316C 88.0472,313.946 90.7139,312.113 93.5,310.5 Z"/></g>
<g><path style="opacity:0.651" fill="#c0c0c4" d="M 230.5,297.5 C 231.167,297.5 231.833,297.5 232.5,297.5C 233.167,297.5 233.833,297.5 234.5,297.5C 227.048,301.367 219.048,303.7 210.5,304.5C 213.145,302.69 216.145,301.69 219.5,301.5C 223.313,300.562 226.979,299.229 230.5,297.5 Z"/></g>
<g><path style="opacity:0.763" fill="#000000" d="M 116.5,318.5 C 122.911,320.359 129.244,322.526 135.5,325C 143.468,329.668 144.802,335.501 139.5,342.5C 137.453,344.015 135.119,344.849 132.5,345C 135.525,350.882 138.692,356.715 142,362.5C 143.957,363.889 145.79,365.389 147.5,367C 142.718,367.597 138.551,365.764 135,361.5C 132.294,355.922 129.461,350.422 126.5,345C 124.649,344.163 122.816,343.329 121,342.5C 118.646,346.509 117.812,350.675 118.5,355C 119.448,355.483 120.448,355.649 121.5,355.5C 121.719,356.675 121.386,357.675 120.5,358.5C 115.686,356.229 110.686,354.562 105.5,353.5C 105.281,352.325 105.614,351.325 106.5,350.5C 108.198,351.681 109.865,351.681 111.5,350.5C 114.896,341.978 117.896,333.311 120.5,324.5C 120.281,322.085 118.948,321.085 116.5,321.5C 116.5,320.5 116.5,319.5 116.5,318.5 Z M 126.5,324.5 C 134.052,325.204 137.219,329.204 136,336.5C 132.614,343.044 127.78,344.21 121.5,340C 123.668,334.997 125.334,329.83 126.5,324.5 Z"/></g>
<g><path style="opacity:0.753" fill="#000000" d="M 246.5,321.5 C 247.675,321.281 248.675,321.614 249.5,322.5C 256.819,330.953 264.486,339.12 272.5,347C 274.256,347.202 275.922,347.702 277.5,348.5C 272.869,350.827 268.202,353.16 263.5,355.5C 263.167,355 262.833,354.5 262.5,354C 263.833,352.667 265.167,351.333 266.5,350C 264.05,346.547 261.217,343.38 258,340.5C 255.122,341.689 252.288,343.022 249.5,344.5C 248.23,348.516 248.23,352.516 249.5,356.5C 250.922,357.547 252.422,357.547 254,356.5C 255.257,356.85 255.591,357.517 255,358.5C 250.69,360.826 246.19,362.326 241.5,363C 244.628,361.212 245.961,358.545 245.5,355C 244.991,345.252 244.324,335.252 243.5,325C 244.071,323.401 245.071,322.234 246.5,321.5 Z M 247.5,329.5 C 250.479,331.812 253.146,334.479 255.5,337.5C 253.51,338.498 251.51,339.498 249.5,340.5C 248.687,336.838 248.021,333.172 247.5,329.5 Z"/></g>
<g><path style="opacity:0.741" fill="#000000" d="M 180.5,370.5 C 176.167,370.5 171.833,370.5 167.5,370.5C 166.282,369.839 164.949,369.172 163.5,368.5C 165.341,367.77 167.175,367.103 169,366.5C 170.106,362.878 170.439,359.211 170,355.5C 167,349.833 164,344.167 161,338.5C 158.963,336.564 156.797,334.898 154.5,333.5C 159.767,333.087 165.101,333.087 170.5,333.5C 170.5,334.5 170.5,335.5 170.5,336.5C 169.127,336.343 167.793,336.51 166.5,337C 169.206,342.247 172.04,347.414 175,352.5C 178.383,347.727 181.216,342.727 183.5,337.5C 182.5,337.5 181.5,337.5 180.5,337.5C 180.5,336.5 180.5,335.5 180.5,334.5C 185.13,335.229 189.797,335.563 194.5,335.5C 194.5,336.5 194.5,337.5 194.5,338.5C 192.801,338.34 191.134,338.506 189.5,339C 182.049,346.075 177.383,354.575 175.5,364.5C 176.565,367.135 178.232,369.135 180.5,370.5 Z"/></g>
<g><path style="opacity:0.726" fill="#000000" d="M 210.5,370.5 C 208.5,370.5 206.5,370.5 204.5,370.5C 205.3,368.259 206.966,367.259 209.5,367.5C 208.11,358.16 206.61,348.827 205,339.5C 203.599,337.808 201.766,337.141 199.5,337.5C 199.5,336.5 199.5,335.5 199.5,334.5C 204.378,334.215 209.211,333.548 214,332.5C 214.833,332.833 215.667,333.167 216.5,333.5C 214.322,334.657 212.322,335.99 210.5,337.5C 212.382,346.793 214.049,356.126 215.5,365.5C 219.56,364.99 223.56,364.156 227.5,363C 233.524,354.244 234.691,355.078 231,365.5C 224.06,367.122 217.227,368.789 210.5,370.5 Z"/></g>
</svg>
